<svg width="35" height="35" viewBox="0 0 14 14" fill="none" xmlns="http://www.w3.org/2000/svg">
<circle cx="6.99857" cy="6.99991" r="4.63333" stroke="black"/>
<circle cx="7.93125" cy="6.06663" r="1.4" fill="black"/>
<circle cx="5.59935" cy="8.39989" r="0.933333" fill="black"/>
<rect x="5.59961" width="2.8" height="0.933333" fill="black"/>
<rect x="6.5332" y="2.80005" width="2.8" height="0.933333" transform="rotate(-90 6.5332 2.80005)" fill="black"/>
<rect y="8.40002" width="2.8" height="0.933333" transform="rotate(-90 0 8.40002)" fill="black"/>
<rect x="2.80078" y="7.46667" width="2.8" height="0.933333" transform="rotate(-180 2.80078 7.46667)" fill="black"/>
<rect x="8.40039" y="14" width="2.8" height="0.933333" transform="rotate(180 8.40039 14)" fill="black"/>
<rect x="7.4668" y="11.2" width="2.8" height="0.933333" transform="rotate(90 7.4668 11.2)" fill="black"/>
<rect x="13.293" y="11.3132" width="2.8" height="0.933333" transform="rotate(135 13.293 11.3132)" fill="black"/>
<rect x="10.6523" y="9.99329" width="2.8" height="0.933333" transform="rotate(45 10.6523 9.99329)" fill="black"/>
<rect x="2.91394" y="13.2931" width="2.8" height="0.933333" transform="rotate(-135 2.91394 13.2931)" fill="black"/>
<rect x="4.23413" y="10.6533" width="2.8" height="0.933333" transform="rotate(135 4.23413 10.6533)" fill="black"/>
<rect x="14" y="5.59998" width="2.8" height="0.933333" transform="rotate(90 14 5.59998)" fill="black"/>
<rect x="11.1992" y="6.53333" width="2.8" height="0.933333" fill="black"/>
<rect x="11.3143" y="0.93335" width="2.8" height="0.933333" transform="rotate(45 11.3143 0.93335)" fill="black"/>
<rect x="9.99414" y="3.57312" width="2.8" height="0.933333" transform="rotate(-45 9.99414 3.57312)" fill="black"/>
<rect x="0.933716" y="2.91321" width="2.8" height="0.933333" transform="rotate(-45 0.933716 2.91321)" fill="black"/>
<rect x="3.57422" y="4.23315" width="2.8" height="0.933333" transform="rotate(-135 3.57422 4.23315)" fill="black"/>
</svg>
