<svg width="40" height="40" viewBox="0 0 19 20" fill="none" xmlns="http://www.w3.org/2000/svg">
<circle r="1.77241" transform="matrix(-1 0 0 1 11.2413 2.97246)" stroke="black" stroke-width="0.8"/>
<circle r="1.15172" transform="matrix(-1 0 0 1 3.79312 10.3104)" stroke="black" stroke-width="0.8"/>
<path d="M17.0876 11.217L13.8598 6.30752C13.8527 6.29677 13.8436 6.28749 13.8331 6.28018L12.5387 5.38624C12.5029 5.36157 12.4554 5.36276 12.421 5.38919L11.3032 6.24691C11.2688 6.27334 11.2212 6.27453 11.1855 6.24986L9.93158 5.38388C9.89753 5.36036 9.85252 5.36025 9.81835 5.38359L8.12403 6.54086C8.10439 6.55428 8.09018 6.57425 8.08394 6.5972L6.61221 12.0092C6.59782 12.0622 6.62877 12.1168 6.68158 12.1317L7.4493 12.3481C7.50242 12.3631 7.55763 12.3322 7.57266 12.2791L8.92742 7.48957C8.96014 7.37388 9.13169 7.40374 9.1234 7.52368L8.77878 12.5104L9.04881 18.9042C9.05107 18.9578 9.09513 19 9.14872 19H10.4683C10.5203 19 10.5636 18.9602 10.568 18.9084L11.1548 11.9606C11.1651 11.8395 11.3417 11.838 11.354 11.9589L12.0585 18.9101C12.0637 18.9612 12.1067 19 12.158 19H13.3401C13.3945 19 13.4389 18.9565 13.4401 18.9021L13.575 12.5104L13.1921 7.9765C13.1837 7.87756 13.3091 7.82824 13.3704 7.90635L16.3909 11.7555C16.425 11.7991 16.488 11.8066 16.5315 11.7723L17.066 11.3504C17.1067 11.3183 17.1161 11.2604 17.0876 11.217Z" stroke="black" stroke-width="0.8"/>
<path d="M17.7518 12.6158C17.7858 12.2611 17.7108 11.5518 17.138 11.5518C16.5651 11.5518 16.4901 12.2611 16.5242 12.6158V19" stroke="black" stroke-width="0.8"/>
<path d="M2.13268 15.9494H1.11554C1.0546 15.9494 1.00783 15.8954 1.01657 15.8351L1.27284 14.0671C1.40595 13.1489 2.15313 12.4427 3.07745 12.3617L3.57825 12.3177H4.15119L4.48032 12.3502C5.37762 12.4386 6.10478 13.1166 6.25584 14.0055L6.56637 15.8327C6.57674 15.8937 6.5297 15.9494 6.46778 15.9494H5.43831C5.38782 15.9494 5.34526 15.9118 5.33906 15.8617L5.11659 14.061L5.71292 18.8878C5.72029 18.9474 5.67377 19.0001 5.61368 19.0001H4.66372C4.61568 19.0001 4.57442 18.9659 4.56547 18.9187L3.97393 15.799C3.95296 15.6885 3.79368 15.6914 3.77681 15.8027L3.30467 18.9151C3.29726 18.9639 3.25524 19.0001 3.2058 19.0001H2.1109C2.05256 19.0001 2.0066 18.9503 2.01122 18.8922L2.24481 15.9494L2.43359 14.061" stroke="black" stroke-width="0.8"/>
</svg>
