<svg width="45" height="45" viewBox="0 0 21 18" fill="none" xmlns="http://www.w3.org/2000/svg">
<path d="M10.5 5.99988C10.5 8.95687 10.35 15.2967 9.75 16.9999H11.75" stroke="black"/>
<path d="M11 5.99988C11 8.95687 11.15 15.2967 11.75 16.9999H9.75" stroke="black"/>
<path d="M10.5968 6.3479L10.2894 3.62354L10.5968 0.89917" stroke="black"/>
<path d="M10.9041 6.3479L11.2115 3.62354L10.9041 0.89917" stroke="black"/>
<path d="M6.24737 8.78575L8.45229 7.15777L10.9646 6.06225" stroke="black"/>
<path d="M6.4009 9.05237L8.91323 7.95685L11.1181 6.32887" stroke="black"/>
<path d="M15.3139 8.78575L13.109 7.15777L10.5967 6.06225" stroke="black"/>
<path d="M15.1604 9.05237L12.6481 7.95685L10.4431 6.32887" stroke="black"/>
<path d="M13.7497 10.4802C13.6209 12.2843 13.7497 14.7326 12.9766 16.6655" stroke="black" stroke-linecap="round"/>
<path d="M18.2769 10.516C18.2573 10.2405 18.4646 10.0013 18.74 9.98162C19.0155 9.96194 19.2547 10.1693 19.2744 10.4447L18.2769 10.516ZM19.2744 10.4447C19.4088 12.3259 19.082 13.1167 20.0306 16.5318L19.0671 16.7994C18.0828 13.2561 18.4003 12.2429 18.2769 10.516L19.2744 10.4447Z" fill="black"/>
<path fill-rule="evenodd" clip-rule="evenodd" d="M13 15.6909C12.8793 15.7756 12.5199 16.0615 12.5199 16.5865C12.5199 17.1261 12.8996 17.4131 13.0095 17.4886C13.1591 17.5914 13.3153 17.6509 13.4206 17.6859C13.6446 17.7604 13.9154 17.812 14.1861 17.8501C14.7427 17.9283 15.4789 17.9731 16.2699 17.9731C17.0609 17.9731 17.7971 17.9283 18.3536 17.8501C18.6244 17.812 18.8952 17.7604 19.1192 17.6859C19.2245 17.6509 19.3807 17.5914 19.5303 17.4886C19.6402 17.4131 20.0199 17.1261 20.0199 16.5865C20.0199 16.0468 19.6402 15.7598 19.5303 15.6843C19.3807 15.5815 19.2245 15.522 19.1192 15.487C19.0807 15.4743 19.0409 15.4622 19 15.4507V16.5397C19.0131 16.555 19.0199 16.5706 19.0199 16.5865C19.0199 16.7035 18.6498 16.8084 18.0651 16.8793C17.5834 16.9377 16.956 16.9731 16.2699 16.9731C15.5838 16.9731 14.9564 16.9377 14.4747 16.8793C13.9125 16.8112 13.5487 16.7115 13.5215 16.5999H13V15.6909ZM14.0404 17.389C14.0403 17.3889 14.0423 17.3881 14.0467 17.3866C14.0427 17.3882 14.0405 17.389 14.0404 17.389ZM18.4931 17.3866C18.4975 17.3881 18.4995 17.3889 18.4994 17.389C18.4993 17.389 18.4971 17.3882 18.4931 17.3866Z" fill="black"/>
<path fill-rule="evenodd" clip-rule="evenodd" d="M13.2206 10.4434C13.2202 10.4555 13.22 10.4678 13.22 10.4802C13.22 10.893 13.4457 11.166 13.5839 11.2934C13.7237 11.4222 13.8735 11.4992 13.9739 11.544C14.1813 11.6365 14.419 11.6954 14.6351 11.7362C15.0838 11.8208 15.6612 11.8667 16.27 11.8667C16.8787 11.8667 17.4562 11.8208 17.9048 11.7362C18.121 11.6954 18.3586 11.6365 18.5661 11.544C18.6664 11.4992 18.8162 11.4222 18.956 11.2934C19.0943 11.166 19.32 10.893 19.32 10.4802C19.32 10.0673 19.0943 9.79429 18.956 9.66688C18.8162 9.53807 18.6664 9.46109 18.5661 9.41634C18.3586 9.32386 18.121 9.26488 17.9048 9.22412C17.8072 9.2057 17.7034 9.18912 17.5945 9.17444V10.1851C18.0383 10.256 18.32 10.3619 18.32 10.4802C18.32 10.6166 17.945 10.7366 17.3787 10.8054C17.059 10.8442 16.6785 10.8667 16.27 10.8667C15.8615 10.8667 15.4809 10.8442 15.1613 10.8054C14.595 10.7366 14.22 10.6166 14.22 10.4802C14.22 10.4678 14.2231 10.4555 14.2291 10.4434H13.2206Z" fill="black"/>
<path d="M18 10C17.5023 8.50698 20.9675 7.01396 18.7453 5.42571C18.7254 5.41143 18.7051 5.39534 18.6875 5.37815C18.0367 4.74121 17.4034 3.32214 16.3925 4.38003C16.2293 4.55075 15.9803 4.61839 15.7526 4.55583C14.25 4.14298 14 5.76581 14 6.22906" stroke="black"/>
<path d="M9 12.9999L7 11.4999V12.9999L5 11.4999V12.9999L3.35294 12.4999L2.88235 4.99988H1.94118L1.47059 12.4999H1V16.9999H8.52941" stroke="black"/>
</svg>
