<svg width="35" height="35" viewBox="0 0 21 18" fill="none" xmlns="http://www.w3.org/2000/svg">
<path d="M10.5 6C10.5 8.95699 10.35 15.2968 9.75 17H11.75" stroke="black" stroke-width="0.7"/>
<path d="M11 6C11 8.95699 11.15 15.2968 11.75 17H9.75" stroke="black" stroke-width="0.7"/>
<path d="M10.5047 6.44873L10.1973 3.72437L10.5047 1" stroke="black" stroke-width="0.75"/>
<path d="M10.812 6.44873L11.1194 3.72437L10.812 1" stroke="black" stroke-width="0.75"/>
<path d="M6.15521 8.88658L8.36013 7.2586L10.8725 6.16308" stroke="black" stroke-width="0.75"/>
<path d="M6.30873 9.1532L8.82106 8.05768L11.026 6.4297" stroke="black" stroke-width="0.75"/>
<path d="M15.2217 8.88658L13.0168 7.2586L10.5045 6.16308" stroke="black" stroke-width="0.75"/>
<path d="M15.0682 9.1532L12.5559 8.05768L10.351 6.4297" stroke="black" stroke-width="0.75"/>
<path d="M13.7497 10.4803C13.6209 12.2844 13.7497 14.7327 12.9766 16.6656" stroke="black" stroke-width="0.75" stroke-linecap="round"/>
<path d="M18.7758 10.4803C18.9047 12.2844 18.5825 13.1864 19.549 16.6656" stroke="black" stroke-width="0.75"/>
<path fill-rule="evenodd" clip-rule="evenodd" d="M13.1699 16.0687C13.1037 16.0926 13.0351 16.1226 12.9721 16.1611C12.9103 16.1989 12.6699 16.3545 12.6699 16.6657C12.6699 16.9768 12.9103 17.1325 12.9721 17.1703C13.0682 17.229 13.1774 17.2679 13.2712 17.2957C13.4664 17.3533 13.7242 17.399 14.0137 17.4352C14.5997 17.5084 15.3945 17.5523 16.2625 17.5523C17.1306 17.5523 17.9254 17.5084 18.5114 17.4352C18.8009 17.399 19.0587 17.3533 19.2539 17.2957C19.3477 17.2679 19.4569 17.229 19.553 17.1703C19.6148 17.1325 19.8552 16.9768 19.8552 16.6657C19.8552 16.3545 19.6148 16.1989 19.553 16.1611C19.49 16.1226 19.4214 16.0926 19.3552 16.0687V16.6657V16.7499H19.2815C19.2068 16.792 19.0774 16.8314 18.903 16.867C18.8141 16.8852 18.7134 16.9024 18.6023 16.9185C18.0352 17.0004 17.1973 17.0523 16.2625 17.0523C15.3278 17.0523 14.4899 17.0004 13.9228 16.9185C13.8117 16.9024 13.711 16.8852 13.622 16.867C13.4477 16.8314 13.3183 16.792 13.2436 16.7499H13.1699V16.6657V16.0687Z" fill="black"/>
<path fill-rule="evenodd" clip-rule="evenodd" d="M13.3816 10.4436C13.3811 10.4556 13.3809 10.4679 13.3809 10.4802C13.3809 10.8073 13.5655 11.0207 13.6757 11.1187C13.789 11.2194 13.9126 11.2814 14.0015 11.3197C14.1852 11.3987 14.4047 11.4525 14.619 11.4915C15.0599 11.5717 15.6382 11.6168 16.2559 11.6168C16.8735 11.6168 17.4518 11.5717 17.8927 11.4915C18.107 11.4525 18.3266 11.3987 18.5102 11.3197C18.5991 11.2814 18.7228 11.2194 18.836 11.1187C18.9462 11.0207 19.1309 10.8073 19.1309 10.4802C19.1309 10.1532 18.9462 9.93979 18.836 9.84181C18.7228 9.74113 18.5991 9.67904 18.5102 9.64079C18.3266 9.56181 18.107 9.50799 17.8927 9.469C17.8132 9.45453 17.7292 9.4412 17.6413 9.42908V10.1871C17.659 10.1899 17.6764 10.1927 17.6936 10.1956C18.1161 10.2662 18.3809 10.3676 18.3809 10.4802C18.3809 10.5929 18.1161 10.6943 17.6936 10.7649C17.435 10.8082 17.1174 10.8399 16.7652 10.8556C16.602 10.8629 16.4314 10.8668 16.2559 10.8668C16.0803 10.8668 15.9097 10.8629 15.7465 10.8556C15.3944 10.8399 15.0767 10.8082 14.8181 10.7649C14.3956 10.6943 14.1309 10.5929 14.1309 10.4802C14.1309 10.4679 14.134 10.4557 14.1403 10.4436H13.3816ZM17.9221 9.9396C17.9222 9.93962 17.9209 9.94027 17.9181 9.94148L17.9221 9.9396ZM14.5896 11.0209C14.5895 11.0209 14.5908 11.0202 14.5936 11.019L14.5896 11.0209ZM17.9221 11.0209L17.9181 11.019C17.9209 11.0202 17.9222 11.0209 17.9221 11.0209Z" fill="black"/>
<path d="M17.6082 10.25C17.6082 9.46201 19.2475 8.67407 19.2327 7.6914C19.2284 7.40761 19.3019 7.09333 19.4912 6.88181C19.9973 6.31623 19.7242 5.58973 18.9914 5.62759C18.8168 5.63662 18.6351 5.60185 18.5202 5.46997C17.9253 4.78693 17.3167 3.68376 16.3925 4.65093C16.2293 4.82165 15.9803 4.88929 15.7526 4.82673C14.25 4.41388 14 6.03671 14 6.49996" stroke="black" stroke-width="0.75"/>
<path d="M9 13L6.64706 11.5V13L4.29412 11.5V13L3.35294 12.5L2.88235 5H1.94118L1.47059 12.5H1V17H8.52941" stroke="black" stroke-width="0.75"/>
</svg>
