<svg width="35" height="35" viewBox="0 0 18 20" fill="none" xmlns="http://www.w3.org/2000/svg">
<path d="M9.7617 10.2015H4.37247V8.37927L1 11.6379L4.37247 14.8874V13.1172H10.327M7.50062 13.1104H13.4551V11.2089L16.6724 14.6122L13.4551 18V16.1528H7.92457" stroke="black"/>
<path fill-rule="evenodd" clip-rule="evenodd" d="M14.9723 10.7374L15.6697 11.4751C16.5907 10.273 17.138 8.76936 17.138 7.13793C17.138 3.19576 13.9423 0 10.0001 0C6.05793 0 2.86217 3.19576 2.86217 7.13793C2.86217 7.36061 2.87237 7.5809 2.89232 7.79837L3.67769 7.03951L3.86857 6.85507C4.01638 3.59649 6.70502 1 10.0001 1C13.39 1 16.138 3.74805 16.138 7.13793C16.138 8.48258 15.7057 9.72623 14.9723 10.7374Z" fill="black"/>
<path d="M6.58614 1.39661L8.00014 2.81061C8.18768 2.99815 8.29303 3.2525 8.29303 3.51772V4.39619C8.29303 4.6614 8.39839 4.91576 8.58593 5.10329L9.39669 5.91406C9.58423 6.1016 9.68959 6.35595 9.68959 6.62117V7.26398C9.68959 7.65917 9.45685 8.01729 9.09572 8.17779L8.48696 8.44835C8.3591 8.50518 8.22074 8.53454 8.08082 8.53454H7.89718C7.56283 8.53454 7.2506 8.36744 7.06513 8.08924L6.10714 6.65225C5.92168 6.37405 5.60944 6.20695 5.27509 6.20695H3.32751" stroke="black"/>
<path d="M11.862 0.620605V1.98343C11.862 2.20575 11.7841 2.42103 11.6418 2.59182V2.59182C11.3271 2.96942 11.3523 3.52465 11.6999 3.87221L12.1898 4.3622C12.3774 4.54973 12.4827 4.80409 12.4827 5.0693V5.48268C12.4827 5.88261 12.8069 6.20681 13.2069 6.20681V6.20681C13.4348 6.20681 13.6494 6.0995 13.7862 5.91716L14.6655 4.74474C14.8543 4.49294 15.1507 4.34474 15.4655 4.34474H16.0517" stroke="black"/>
<path d="M16.3621 9.77587L15.1079 8.3963C14.9184 8.18782 14.6497 8.06897 14.368 8.06897H13.6728C13.4076 8.06897 13.1533 8.17433 12.9657 8.36186L12.6379 8.68966" stroke="black"/>
</svg>
