<svg width="56" height="31" viewBox="0 0 56 31" fill="none" xmlns="http://www.w3.org/2000/svg">
<path d="M25.8983 12.0771V11.1406H23.4305V10.2451H25.8983V9.30859H23.4373V9.30176C23.4373 9.04199 23.4875 8.74577 23.5877 8.41309C23.688 8.07585 23.8406 7.79102 24.0457 7.55859C24.228 7.35807 24.4604 7.2054 24.743 7.10059C25.0255 6.99577 25.3377 6.94336 25.6795 6.94336C25.9302 6.94336 26.174 6.96615 26.411 7.01172C26.6479 7.05273 26.8735 7.10514 27.0877 7.16895L27.2655 5.82227C26.992 5.75846 26.7209 5.70833 26.452 5.67188C26.1877 5.63086 25.9142 5.61035 25.6317 5.61035C25.0848 5.61035 24.5812 5.6901 24.1209 5.84961C23.6652 6.00456 23.271 6.23698 22.9383 6.54688C22.6056 6.85221 22.3299 7.25553 22.1112 7.75684C21.897 8.25358 21.7899 8.764 21.7899 9.28809V9.30859H20.5936V10.2451H21.783V11.1406H20.5936V12.0771H21.783V12.1113C21.783 12.6719 21.8856 13.2005 22.0906 13.6973C22.2957 14.1895 22.5601 14.5859 22.8836 14.8867C23.2163 15.2057 23.6105 15.445 24.0662 15.6045C24.5265 15.7594 25.0301 15.8369 25.577 15.8369C25.8732 15.8369 26.1626 15.8187 26.4451 15.7822C26.7277 15.7458 27.0011 15.6956 27.2655 15.6318L27.0877 14.292C26.869 14.3695 26.6411 14.4264 26.4041 14.4629C26.1671 14.4948 25.9233 14.5107 25.6727 14.5107C25.34 14.5107 25.0369 14.4652 24.7635 14.374C24.4946 14.2829 24.2645 14.137 24.0731 13.9365C23.8862 13.7497 23.7313 13.4922 23.6082 13.1641C23.4897 12.8359 23.4305 12.4827 23.4305 12.1045V12.0771H25.8983Z" fill="#3A3A3A"/>
<rect x="1" y="1" width="45.9" height="21.6" stroke="#3A3A3A" stroke-width="2"/>
<path d="M6.05002 26.3002H50.6V4.7002" stroke="#3A3A3A" stroke-width="2"/>
<path d="M9.75 30.0004H54.3V8.40039" stroke="#3A3A3A" stroke-width="2"/>
<path d="M46.9 22.5994V19.8994L44.2 22.5994H46.9Z" stroke="#3A3A3A" stroke-width="2"/>
<path d="M46.9 1.0002H44.2L46.9 3.7002V1.0002Z" stroke="#3A3A3A" stroke-width="2"/>
<path d="M1.00001 22.5994V19.8994L3.70001 22.5994H1.00001Z" stroke="#3A3A3A" stroke-width="2"/>
<path d="M1.00001 1.0002H3.70001L1.00001 3.7002V1.0002Z" stroke="#3A3A3A" stroke-width="2"/>
</svg>
