<svg height="548" width="800"><line x1="0" y1="0" x2="0" y2="5" stroke="#ACACAC"></line><line x1="53.03867403314917" y1="0" x2="53.03867403314917" y2="5" stroke="#ACACAC"></line><line x1="106.07734806629834" y1="0" x2="106.07734806629834" y2="5" stroke="#ACACAC"></line><line x1="159.11602209944752" y1="0" x2="159.11602209944752" y2="5" stroke="#ACACAC"></line><line x1="212.15469613259668" y1="0" x2="212.15469613259668" y2="5" stroke="#ACACAC"></line><line x1="265.1933701657458" y1="0" x2="265.1933701657458" y2="5" stroke="#ACACAC"></line><line x1="318.23204419889504" y1="0" x2="318.23204419889504" y2="5" stroke="#ACACAC"></line><line x1="371.2707182320442" y1="0" x2="371.2707182320442" y2="5" stroke="#ACACAC"></line><line x1="424.30939226519337" y1="0" x2="424.30939226519337" y2="5" stroke="#ACACAC"></line><line x1="477.3480662983426" y1="0" x2="477.3480662983426" y2="5" stroke="#ACACAC"></line><line x1="530.3867403314916" y1="0" x2="530.3867403314916" y2="5" stroke="#ACACAC"></line><line x1="583.4254143646409" y1="0" x2="583.4254143646409" y2="5" stroke="#ACACAC"></line><line x1="636.4640883977901" y1="0" x2="636.4640883977901" y2="5" stroke="#ACACAC"></line><line x1="689.5027624309392" y1="0" x2="689.5027624309392" y2="5" stroke="#ACACAC"></line><line x1="742.5414364640884" y1="0" x2="742.5414364640884" y2="5" stroke="#ACACAC"></line><line x1="795.5801104972376" y1="0" x2="795.5801104972376" y2="5" stroke="#ACACAC"></line><g transform="translate(0 0)"><rect y="30" height="40" width="707.182320441989" fill-opacity="0" stroke="#C0C0C0"></rect><line x1="73.37016574585635" y1="62" x2="73.37016574585635" y2="70" stroke="#5675F3"></line><line x1="75.13812154696133" y1="62" x2="75.13812154696133" y2="70" stroke="#5675F3"></line><line x1="72.48618784530386" y1="62" x2="72.48618784530386" y2="70" stroke="#5675F3"></line><line x1="82.20994475138122" y1="62" x2="82.20994475138122" y2="70" stroke="#5675F3"></line><line x1="122.87292817679558" y1="62" x2="122.87292817679558" y2="70" stroke="#5675F3"></line><line x1="123.75690607734806" y1="62" x2="123.75690607734806" y2="70" stroke="#5675F3"></line><line x1="125.52486187845304" y1="62" x2="125.52486187845304" y2="70" stroke="#5675F3"></line><line x1="138.78453038674033" y1="62" x2="138.78453038674033" y2="70" stroke="#5675F3"></line><line x1="140.55248618784532" y1="62" x2="140.55248618784532" y2="70" stroke="#5675F3"></line><line x1="154.6961325966851" y1="62" x2="154.6961325966851" y2="70" stroke="#5675F3"></line><line x1="156.46408839779005" y1="62" x2="156.46408839779005" y2="70" stroke="#5675F3"></line><line x1="166.18784530386742" y1="62" x2="166.18784530386742" y2="70" stroke="#5675F3"></line><line x1="169.72375690607734" y1="62" x2="169.72375690607734" y2="70" stroke="#5675F3"></line><line x1="180.3314917127072" y1="62" x2="180.3314917127072" y2="70" stroke="#5675F3"></line><line x1="181.21546961325967" y1="62" x2="181.21546961325967" y2="70" stroke="#5675F3"></line><line x1="182.09944751381215" y1="62" x2="182.09944751381215" y2="70" stroke="#5675F3"></line><line x1="182.98342541436463" y1="62" x2="182.98342541436463" y2="70" stroke="#5675F3"></line><line x1="187.40331491712706" y1="54" x2="187.40331491712706" y2="70" stroke="#5675F3"></line><line x1="189.17127071823205" y1="62" x2="189.17127071823205" y2="70" stroke="#5675F3"></line><line x1="190.939226519337" y1="46" x2="190.939226519337" y2="70" stroke="#5675F3"></line><line x1="191.8232044198895" y1="62" x2="191.8232044198895" y2="70" stroke="#5675F3"></line><line x1="225.41436464088397" y1="62" x2="225.41436464088397" y2="70" stroke="#5675F3"></line><line x1="231.6022099447514" y1="62" x2="231.6022099447514" y2="70" stroke="#5675F3"></line><line x1="232.48618784530385" y1="62" x2="232.48618784530385" y2="70" stroke="#5675F3"></line><line x1="236.02209944751382" y1="62" x2="236.02209944751382" y2="70" stroke="#5675F3"></line><line x1="237.79005524861878" y1="62" x2="237.79005524861878" y2="70" stroke="#5675F3"></line><line x1="240.44198895027625" y1="62" x2="240.44198895027625" y2="70" stroke="#5675F3"></line><line x1="241.32596685082873" y1="62" x2="241.32596685082873" y2="70" stroke="#5675F3"></line><line x1="245.74585635359117" y1="62" x2="245.74585635359117" y2="70" stroke="#5675F3"></line><line x1="249.28176795580112" y1="54" x2="249.28176795580112" y2="70" stroke="#5675F3"></line><line x1="265.1933701657458" y1="62" x2="265.1933701657458" y2="70" stroke="#5675F3"></line><line x1="271.38121546961327" y1="62" x2="271.38121546961327" y2="70" stroke="#5675F3"></line><line x1="272.2651933701657" y1="62" x2="272.2651933701657" y2="70" stroke="#5675F3"></line><line x1="276.6850828729282" y1="62" x2="276.6850828729282" y2="70" stroke="#5675F3"></line><line x1="278.45303867403317" y1="62" x2="278.45303867403317" y2="70" stroke="#5675F3"></line><line x1="282.87292817679554" y1="62" x2="282.87292817679554" y2="70" stroke="#5675F3"></line><line x1="285.524861878453" y1="62" x2="285.524861878453" y2="70" stroke="#5675F3"></line><line x1="287.292817679558" y1="62" x2="287.292817679558" y2="70" stroke="#5675F3"></line><line x1="293.4806629834254" y1="62" x2="293.4806629834254" y2="70" stroke="#5675F3"></line><line x1="311.16022099447514" y1="54" x2="311.16022099447514" y2="70" stroke="#5675F3"></line><line x1="313.8121546961326" y1="54" x2="313.8121546961326" y2="70" stroke="#5675F3"></line><line x1="314.6961325966851" y1="62" x2="314.6961325966851" y2="70" stroke="#5675F3"></line><line x1="315.58011049723757" y1="62" x2="315.58011049723757" y2="70" stroke="#5675F3"></line><line x1="316.4640883977901" y1="62" x2="316.4640883977901" y2="70" stroke="#5675F3"></line><line x1="365.0828729281768" y1="62" x2="365.0828729281768" y2="70" stroke="#5675F3"></line><line x1="370.38674033149175" y1="62" x2="370.38674033149175" y2="70" stroke="#5675F3"></line><line x1="371.2707182320442" y1="62" x2="371.2707182320442" y2="70" stroke="#5675F3"></line><line x1="372.1546961325967" y1="62" x2="372.1546961325967" y2="70" stroke="#5675F3"></line><line x1="373.03867403314916" y1="62" x2="373.03867403314916" y2="70" stroke="#5675F3"></line><line x1="373.9226519337017" y1="62" x2="373.9226519337017" y2="70" stroke="#5675F3"></line><line x1="375.69060773480663" y1="62" x2="375.69060773480663" y2="70" stroke="#5675F3"></line><line x1="378.3425414364641" y1="62" x2="378.3425414364641" y2="70" stroke="#5675F3"></line><line x1="379.22651933701655" y1="62" x2="379.22651933701655" y2="70" stroke="#5675F3"></line><line x1="380.9944751381216" y1="62" x2="380.9944751381216" y2="70" stroke="#5675F3"></line><line x1="385.414364640884" y1="62" x2="385.414364640884" y2="70" stroke="#5675F3"></line><line x1="386.29834254143645" y1="62" x2="386.29834254143645" y2="70" stroke="#5675F3"></line><line x1="390.7182320441989" y1="62" x2="390.7182320441989" y2="70" stroke="#5675F3"></line><line x1="391.6022099447514" y1="62" x2="391.6022099447514" y2="70" stroke="#5675F3"></line><line x1="394.2541436464088" y1="62" x2="394.2541436464088" y2="70" stroke="#5675F3"></line><line x1="395.1381215469613" y1="62" x2="395.1381215469613" y2="70" stroke="#5675F3"></line><line x1="435.8011049723757" y1="62" x2="435.8011049723757" y2="70" stroke="#5675F3"></line><line x1="436.6850828729282" y1="62" x2="436.6850828729282" y2="70" stroke="#5675F3"></line><line x1="440.2209944751381" y1="54" x2="440.2209944751381" y2="70" stroke="#5675F3"></line><line x1="442.8729281767956" y1="62" x2="442.8729281767956" y2="70" stroke="#5675F3"></line><line x1="443.75690607734805" y1="54" x2="443.75690607734805" y2="70" stroke="#5675F3"></line><line x1="444.64088397790056" y1="62" x2="444.64088397790056" y2="70" stroke="#5675F3"></line><line x1="448.1767955801105" y1="62" x2="448.1767955801105" y2="70" stroke="#5675F3"></line><line x1="491.49171270718233" y1="62" x2="491.49171270718233" y2="70" stroke="#5675F3"></line><line x1="494.14364640883974" y1="62" x2="494.14364640883974" y2="70" stroke="#5675F3"></line><line x1="502.09944751381215" y1="62" x2="502.09944751381215" y2="70" stroke="#5675F3"></line><line x1="513.5911602209945" y1="62" x2="513.5911602209945" y2="70" stroke="#5675F3"></line><line x1="527.7348066298342" y1="62" x2="527.7348066298342" y2="70" stroke="#5675F3"></line><line x1="544.5303867403314" y1="62" x2="544.5303867403314" y2="70" stroke="#5675F3"></line><line x1="548.0662983425415" y1="62" x2="548.0662983425415" y2="70" stroke="#5675F3"></line><line x1="548.950276243094" y1="62" x2="548.950276243094" y2="70" stroke="#5675F3"></line><line x1="550.7182320441989" y1="62" x2="550.7182320441989" y2="70" stroke="#5675F3"></line><line x1="553.3701657458564" y1="62" x2="553.3701657458564" y2="70" stroke="#5675F3"></line><line x1="556.0220994475138" y1="46" x2="556.0220994475138" y2="70" stroke="#5675F3"></line><line x1="557.7900552486188" y1="62" x2="557.7900552486188" y2="70" stroke="#5675F3"></line><line x1="558.6740331491714" y1="62" x2="558.6740331491714" y2="70" stroke="#5675F3"></line><line x1="563.9779005524862" y1="62" x2="563.9779005524862" y2="70" stroke="#5675F3"></line><line x1="564.8618784530387" y1="62" x2="564.8618784530387" y2="70" stroke="#5675F3"></line><line x1="571.9337016574585" y1="62" x2="571.9337016574585" y2="70" stroke="#5675F3"></line><line x1="575.4696132596684" y1="62" x2="575.4696132596684" y2="70" stroke="#5675F3"></line><line x1="576.353591160221" y1="62" x2="576.353591160221" y2="70" stroke="#5675F3"></line><line x1="577.2375690607735" y1="62" x2="577.2375690607735" y2="70" stroke="#5675F3"></line><line x1="581.6574585635359" y1="62" x2="581.6574585635359" y2="70" stroke="#5675F3"></line><line x1="588.7292817679559" y1="62" x2="588.7292817679559" y2="70" stroke="#5675F3"></line><line x1="590.4972375690608" y1="62" x2="590.4972375690608" y2="70" stroke="#5675F3"></line><line x1="594.0331491712708" y1="62" x2="594.0331491712708" y2="70" stroke="#5675F3"></line><line x1="594.9171270718233" y1="62" x2="594.9171270718233" y2="70" stroke="#5675F3"></line><line x1="616.1325966850828" y1="62" x2="616.1325966850828" y2="70" stroke="#5675F3"></line><line x1="617.9005524861878" y1="62" x2="617.9005524861878" y2="70" stroke="#5675F3"></line><line x1="618.7845303867404" y1="54" x2="618.7845303867404" y2="70" stroke="#5675F3"></line><line x1="635.5801104972376" y1="62" x2="635.5801104972376" y2="70" stroke="#5675F3"></line><line x1="641.7679558011049" y1="62" x2="641.7679558011049" y2="70" stroke="#5675F3"></line><line x1="645.3038674033149" y1="62" x2="645.3038674033149" y2="70" stroke="#5675F3"></line><line x1="646.1878453038673" y1="62" x2="646.1878453038673" y2="70" stroke="#5675F3"></line><line x1="652.3756906077348" y1="62" x2="652.3756906077348" y2="70" stroke="#5675F3"></line><line x1="664.7513812154697" y1="62" x2="664.7513812154697" y2="70" stroke="#5675F3"></line><line x1="665.6353591160222" y1="62" x2="665.6353591160222" y2="70" stroke="#5675F3"></line><line x1="669.1712707182321" y1="62" x2="669.1712707182321" y2="70" stroke="#5675F3"></line><line x1="671.8232044198895" y1="62" x2="671.8232044198895" y2="70" stroke="#5675F3"></line><line x1="674.4751381215469" y1="62" x2="674.4751381215469" y2="70" stroke="#5675F3"></line><line x1="675.3591160220994" y1="62" x2="675.3591160220994" y2="70" stroke="#5675F3"></line><line x1="678.8950276243094" y1="62" x2="678.8950276243094" y2="70" stroke="#5675F3"></line><line x1="679.7790055248619" y1="62" x2="679.7790055248619" y2="70" stroke="#5675F3"></line><line x1="693.9226519337017" y1="54" x2="693.9226519337017" y2="70" stroke="#5675F3"></line><line x1="695.6906077348067" y1="62" x2="695.6906077348067" y2="70" stroke="#5675F3"></line><line x1="696.5745856353591" y1="54" x2="696.5745856353591" y2="70" stroke="#5675F3"></line><line x1="697.4585635359116" y1="62" x2="697.4585635359116" y2="70" stroke="#5675F3"></line><line x1="700.1104972375691" y1="62" x2="700.1104972375691" y2="70" stroke="#5675F3"></line><line x1="700.9944751381216" y1="62" x2="700.9944751381216" y2="70" stroke="#5675F3"></line><line x1="701.878453038674" y1="62" x2="701.878453038674" y2="70" stroke="#5675F3"></line><line x1="702.7624309392265" y1="62" x2="702.7624309392265" y2="70" stroke="#5675F3"></line><line x1="6.1878453038674035" y1="30" x2="6.1878453038674035" y2="70" stroke="#7BDC90"></line><line x1="201.54696132596683" y1="30" x2="201.54696132596683" y2="70" stroke="#7BDC90"></line><line x1="327.95580110497235" y1="30" x2="327.95580110497235" y2="70" stroke="#7BDC90"></line><line x1="329.72375690607737" y1="30" x2="329.72375690607737" y2="70" stroke="#7BDC90"></line><line x1="353.5911602209945" y1="30" x2="353.5911602209945" y2="70" stroke="#7BDC90"></line><line x1="414.585635359116" y1="30" x2="414.585635359116" y2="70" stroke="#7BDC90"></line><line x1="480.8839779005525" y1="30" x2="480.8839779005525" y2="70" stroke="#7BDC90"></line><line x1="629.3922651933702" y1="30" x2="629.3922651933702" y2="70" stroke="#7BDC90"></line><line x1="85.74585635359117" y1="30" x2="85.74585635359117" y2="70" stroke="#FF868F"></line><line x1="250.1657458563536" y1="30" x2="250.1657458563536" y2="70" stroke="#FF868F"></line><line x1="425.1933701657459" y1="30" x2="425.1933701657459" y2="70" stroke="#FF868F"></line><line x1="531.2707182320441" y1="30" x2="531.2707182320441" y2="70" stroke="#FF868F"></line><line x1="658.5635359116022" y1="30" x2="658.5635359116022" y2="70" stroke="#FF868F"></line></g><g transform="translate(0 50)"><rect y="30" height="40" width="364.1988950276243" fill-opacity="0" stroke="#C0C0C0"></rect><line x1="54.80662983425414" y1="62" x2="54.80662983425414" y2="70" stroke="#5675F3"></line><line x1="55.69060773480663" y1="62" x2="55.69060773480663" y2="70" stroke="#5675F3"></line><line x1="56.57458563535912" y1="62" x2="56.57458563535912" y2="70" stroke="#5675F3"></line><line x1="58.34254143646409" y1="62" x2="58.34254143646409" y2="70" stroke="#5675F3"></line><line x1="59.22651933701657" y1="62" x2="59.22651933701657" y2="70" stroke="#5675F3"></line><line x1="60.110497237569064" y1="62" x2="60.110497237569064" y2="70" stroke="#5675F3"></line><line x1="61.87845303867403" y1="62" x2="61.87845303867403" y2="70" stroke="#5675F3"></line><line x1="63.646408839779" y1="62" x2="63.646408839779" y2="70" stroke="#5675F3"></line><line x1="71.60220994475138" y1="62" x2="71.60220994475138" y2="70" stroke="#5675F3"></line><line x1="77.79005524861878" y1="62" x2="77.79005524861878" y2="70" stroke="#5675F3"></line><line x1="78.67403314917128" y1="62" x2="78.67403314917128" y2="70" stroke="#5675F3"></line><line x1="83.97790055248619" y1="62" x2="83.97790055248619" y2="70" stroke="#5675F3"></line><line x1="88.39779005524862" y1="62" x2="88.39779005524862" y2="70" stroke="#5675F3"></line><line x1="90.1657458563536" y1="62" x2="90.1657458563536" y2="70" stroke="#5675F3"></line><line x1="95.4696132596685" y1="62" x2="95.4696132596685" y2="70" stroke="#5675F3"></line><line x1="99.00552486187846" y1="62" x2="99.00552486187846" y2="70" stroke="#5675F3"></line><line x1="105.19337016574586" y1="62" x2="105.19337016574586" y2="70" stroke="#5675F3"></line><line x1="109.61325966850828" y1="62" x2="109.61325966850828" y2="70" stroke="#5675F3"></line><line x1="110.49723756906079" y1="62" x2="110.49723756906079" y2="70" stroke="#5675F3"></line><line x1="112.26519337016573" y1="62" x2="112.26519337016573" y2="70" stroke="#5675F3"></line><line x1="113.14917127071824" y1="62" x2="113.14917127071824" y2="70" stroke="#5675F3"></line><line x1="116.68508287292818" y1="62" x2="116.68508287292818" y2="70" stroke="#5675F3"></line><line x1="117.56906077348066" y1="62" x2="117.56906077348066" y2="70" stroke="#5675F3"></line><line x1="120.22099447513813" y1="62" x2="120.22099447513813" y2="70" stroke="#5675F3"></line><line x1="126.40883977900552" y1="54" x2="126.40883977900552" y2="70" stroke="#5675F3"></line><line x1="129.94475138121547" y1="62" x2="129.94475138121547" y2="70" stroke="#5675F3"></line><line x1="129.060773480663" y1="62" x2="129.060773480663" y2="70" stroke="#5675F3"></line><line x1="136.13259668508286" y1="62" x2="136.13259668508286" y2="70" stroke="#5675F3"></line><line x1="139.66850828729284" y1="62" x2="139.66850828729284" y2="70" stroke="#5675F3"></line><line x1="142.32044198895028" y1="62" x2="142.32044198895028" y2="70" stroke="#5675F3"></line><line x1="144.97237569060772" y1="62" x2="144.97237569060772" y2="70" stroke="#5675F3"></line><line x1="148.5082872928177" y1="62" x2="148.5082872928177" y2="70" stroke="#5675F3"></line><line x1="150.27624309392266" y1="54" x2="150.27624309392266" y2="70" stroke="#5675F3"></line><line x1="152.9281767955801" y1="62" x2="152.9281767955801" y2="70" stroke="#5675F3"></line><line x1="160" y1="62" x2="160" y2="70" stroke="#5675F3"></line><line x1="160.88397790055248" y1="62" x2="160.88397790055248" y2="70" stroke="#5675F3"></line><line x1="161.76795580110496" y1="62" x2="161.76795580110496" y2="70" stroke="#5675F3"></line><line x1="165.3038674033149" y1="62" x2="165.3038674033149" y2="70" stroke="#5675F3"></line><line x1="167.95580110497238" y1="62" x2="167.95580110497238" y2="70" stroke="#5675F3"></line><line x1="170.60773480662982" y1="62" x2="170.60773480662982" y2="70" stroke="#5675F3"></line><line x1="172.3756906077348" y1="62" x2="172.3756906077348" y2="70" stroke="#5675F3"></line><line x1="175.02762430939228" y1="62" x2="175.02762430939228" y2="70" stroke="#5675F3"></line><line x1="180.3314917127072" y1="62" x2="180.3314917127072" y2="70" stroke="#5675F3"></line><line x1="181.21546961325967" y1="62" x2="181.21546961325967" y2="70" stroke="#5675F3"></line><line x1="183.86740331491714" y1="62" x2="183.86740331491714" y2="70" stroke="#5675F3"></line><line x1="186.51933701657458" y1="62" x2="186.51933701657458" y2="70" stroke="#5675F3"></line><line x1="188.28729281767954" y1="62" x2="188.28729281767954" y2="70" stroke="#5675F3"></line><line x1="192.707182320442" y1="62" x2="192.707182320442" y2="70" stroke="#5675F3"></line><line x1="195.35911602209944" y1="62" x2="195.35911602209944" y2="70" stroke="#5675F3"></line><line x1="197.1270718232044" y1="62" x2="197.1270718232044" y2="70" stroke="#5675F3"></line><line x1="203.31491712707185" y1="62" x2="203.31491712707185" y2="70" stroke="#5675F3"></line><line x1="212.15469613259668" y1="62" x2="212.15469613259668" y2="70" stroke="#5675F3"></line><line x1="228.95027624309395" y1="62" x2="228.95027624309395" y2="70" stroke="#5675F3"></line><line x1="231.6022099447514" y1="62" x2="231.6022099447514" y2="70" stroke="#5675F3"></line><line x1="232.48618784530385" y1="62" x2="232.48618784530385" y2="70" stroke="#5675F3"></line><line x1="233.37016574585635" y1="62" x2="233.37016574585635" y2="70" stroke="#5675F3"></line><line x1="235.13812154696132" y1="62" x2="235.13812154696132" y2="70" stroke="#5675F3"></line><line x1="236.02209944751382" y1="62" x2="236.02209944751382" y2="70" stroke="#5675F3"></line><line x1="236.90607734806628" y1="62" x2="236.90607734806628" y2="70" stroke="#5675F3"></line><line x1="237.79005524861878" y1="62" x2="237.79005524861878" y2="70" stroke="#5675F3"></line><line x1="247.51381215469613" y1="62" x2="247.51381215469613" y2="70" stroke="#5675F3"></line><line x1="251.93370165745853" y1="62" x2="251.93370165745853" y2="70" stroke="#5675F3"></line><line x1="252.81767955801104" y1="62" x2="252.81767955801104" y2="70" stroke="#5675F3"></line><line x1="253.70165745856355" y1="62" x2="253.70165745856355" y2="70" stroke="#5675F3"></line><line x1="254.585635359116" y1="62" x2="254.585635359116" y2="70" stroke="#5675F3"></line><line x1="257.23756906077347" y1="62" x2="257.23756906077347" y2="70" stroke="#5675F3"></line><line x1="259.88950276243094" y1="62" x2="259.88950276243094" y2="70" stroke="#5675F3"></line><line x1="262.5414364640884" y1="62" x2="262.5414364640884" y2="70" stroke="#5675F3"></line><line x1="287.292817679558" y1="62" x2="287.292817679558" y2="70" stroke="#5675F3"></line><line x1="288.1767955801105" y1="62" x2="288.1767955801105" y2="70" stroke="#5675F3"></line><line x1="289.94475138121544" y1="62" x2="289.94475138121544" y2="70" stroke="#5675F3"></line><line x1="293.4806629834254" y1="62" x2="293.4806629834254" y2="70" stroke="#5675F3"></line><line x1="295.2486187845304" y1="62" x2="295.2486187845304" y2="70" stroke="#5675F3"></line><line x1="300.5524861878453" y1="62" x2="300.5524861878453" y2="70" stroke="#5675F3"></line><line x1="304.08839779005524" y1="62" x2="304.08839779005524" y2="70" stroke="#5675F3"></line><line x1="304.97237569060775" y1="62" x2="304.97237569060775" y2="70" stroke="#5675F3"></line><line x1="307.62430939226516" y1="62" x2="307.62430939226516" y2="70" stroke="#5675F3"></line><line x1="309.3922651933702" y1="62" x2="309.3922651933702" y2="70" stroke="#5675F3"></line><line x1="311.16022099447514" y1="62" x2="311.16022099447514" y2="70" stroke="#5675F3"></line><line x1="313.8121546961326" y1="62" x2="313.8121546961326" y2="70" stroke="#5675F3"></line><line x1="324.41988950276243" y1="54" x2="324.41988950276243" y2="70" stroke="#5675F3"></line><line x1="325.30386740331494" y1="62" x2="325.30386740331494" y2="70" stroke="#5675F3"></line><line x1="327.0718232044199" y1="62" x2="327.0718232044199" y2="70" stroke="#5675F3"></line><line x1="327.95580110497235" y1="62" x2="327.95580110497235" y2="70" stroke="#5675F3"></line><line x1="329.72375690607737" y1="54" x2="329.72375690607737" y2="70" stroke="#5675F3"></line><line x1="333.2596685082873" y1="62" x2="333.2596685082873" y2="70" stroke="#5675F3"></line><line x1="335.91160220994476" y1="62" x2="335.91160220994476" y2="70" stroke="#5675F3"></line><line x1="336.7955801104972" y1="62" x2="336.7955801104972" y2="70" stroke="#5675F3"></line><line x1="337.6795580110497" y1="62" x2="337.6795580110497" y2="70" stroke="#5675F3"></line><line x1="342.09944751381215" y1="62" x2="342.09944751381215" y2="70" stroke="#5675F3"></line><line x1="346.5193370165746" y1="62" x2="346.5193370165746" y2="70" stroke="#5675F3"></line><line x1="347.4033149171271" y1="62" x2="347.4033149171271" y2="70" stroke="#5675F3"></line><line x1="351.8232044198895" y1="62" x2="351.8232044198895" y2="70" stroke="#5675F3"></line><line x1="355.35911602209944" y1="62" x2="355.35911602209944" y2="70" stroke="#5675F3"></line><line x1="356.2430939226519" y1="62" x2="356.2430939226519" y2="70" stroke="#5675F3"></line><line x1="358.0110497237569" y1="54" x2="358.0110497237569" y2="70" stroke="#5675F3"></line><line x1="359.7790055248619" y1="54" x2="359.7790055248619" y2="70" stroke="#5675F3"></line><line x1="43.31491712707182" y1="30" x2="43.31491712707182" y2="70" stroke="#7BDC90"></line><line x1="159.11602209944752" y1="30" x2="159.11602209944752" y2="70" stroke="#7BDC90"></line><line x1="226.29834254143648" y1="30" x2="226.29834254143648" y2="70" stroke="#7BDC90"></line><line x1="285.524861878453" y1="30" x2="285.524861878453" y2="70" stroke="#7BDC90"></line><line x1="64.5303867403315" y1="30" x2="64.5303867403315" y2="70" stroke="#FF868F"></line><line x1="176.79558011049724" y1="30" x2="176.79558011049724" y2="70" stroke="#FF868F"></line><line x1="241.32596685082873" y1="30" x2="241.32596685082873" y2="70" stroke="#FF868F"></line><line x1="297.90055248618785" y1="30" x2="297.90055248618785" y2="70" stroke="#FF868F"></line></g><g transform="translate(0 100)"><rect y="30" height="40" width="217.4585635359116" fill-opacity="0" stroke="#C0C0C0"></rect><line x1="47.73480662983425" y1="62" x2="47.73480662983425" y2="70" stroke="#5675F3"></line><line x1="48.61878453038674" y1="62" x2="48.61878453038674" y2="70" stroke="#5675F3"></line><line x1="53.03867403314917" y1="62" x2="53.03867403314917" y2="70" stroke="#5675F3"></line><line x1="53.92265193370166" y1="62" x2="53.92265193370166" y2="70" stroke="#5675F3"></line><line x1="55.69060773480663" y1="62" x2="55.69060773480663" y2="70" stroke="#5675F3"></line><line x1="74.25414364640885" y1="62" x2="74.25414364640885" y2="70" stroke="#5675F3"></line><line x1="78.67403314917128" y1="62" x2="78.67403314917128" y2="70" stroke="#5675F3"></line><line x1="81.32596685082873" y1="62" x2="81.32596685082873" y2="70" stroke="#5675F3"></line><line x1="84.86187845303867" y1="62" x2="84.86187845303867" y2="70" stroke="#5675F3"></line><line x1="88.39779005524862" y1="62" x2="88.39779005524862" y2="70" stroke="#5675F3"></line><line x1="89.2817679558011" y1="62" x2="89.2817679558011" y2="70" stroke="#5675F3"></line><line x1="91.93370165745857" y1="62" x2="91.93370165745857" y2="70" stroke="#5675F3"></line><line x1="95.4696132596685" y1="62" x2="95.4696132596685" y2="70" stroke="#5675F3"></line><line x1="97.23756906077348" y1="62" x2="97.23756906077348" y2="70" stroke="#5675F3"></line><line x1="110.49723756906079" y1="54" x2="110.49723756906079" y2="70" stroke="#5675F3"></line><line x1="109.61325966850828" y1="62" x2="109.61325966850828" y2="70" stroke="#5675F3"></line><line x1="112.26519337016573" y1="46" x2="112.26519337016573" y2="70" stroke="#5675F3"></line><line x1="113.14917127071824" y1="30" x2="113.14917127071824" y2="70" stroke="#5675F3"></line><line x1="137.01657458563537" y1="62" x2="137.01657458563537" y2="70" stroke="#5675F3"></line><line x1="142.32044198895028" y1="62" x2="142.32044198895028" y2="70" stroke="#5675F3"></line><line x1="144.97237569060772" y1="62" x2="144.97237569060772" y2="70" stroke="#5675F3"></line><line x1="146.7403314917127" y1="62" x2="146.7403314917127" y2="70" stroke="#5675F3"></line><line x1="153.81215469613258" y1="62" x2="153.81215469613258" y2="70" stroke="#5675F3"></line><line x1="156.46408839779005" y1="62" x2="156.46408839779005" y2="70" stroke="#5675F3"></line><line x1="159.11602209944752" y1="62" x2="159.11602209944752" y2="70" stroke="#5675F3"></line><line x1="161.76795580110496" y1="62" x2="161.76795580110496" y2="70" stroke="#5675F3"></line><line x1="163.53591160220995" y1="62" x2="163.53591160220995" y2="70" stroke="#5675F3"></line><line x1="172.3756906077348" y1="62" x2="172.3756906077348" y2="70" stroke="#5675F3"></line><line x1="174.14364640883977" y1="62" x2="174.14364640883977" y2="70" stroke="#5675F3"></line><line x1="175.02762430939228" y1="54" x2="175.02762430939228" y2="70" stroke="#5675F3"></line><line x1="177.67955801104972" y1="62" x2="177.67955801104972" y2="70" stroke="#5675F3"></line><line x1="178.5635359116022" y1="62" x2="178.5635359116022" y2="70" stroke="#5675F3"></line><line x1="179.44751381215468" y1="62" x2="179.44751381215468" y2="70" stroke="#5675F3"></line><line x1="195.35911602209944" y1="62" x2="195.35911602209944" y2="70" stroke="#5675F3"></line><line x1="197.1270718232044" y1="62" x2="197.1270718232044" y2="70" stroke="#5675F3"></line><line x1="205.08287292817678" y1="62" x2="205.08287292817678" y2="70" stroke="#5675F3"></line><line x1="204.1988950276243" y1="62" x2="204.1988950276243" y2="70" stroke="#5675F3"></line><line x1="207.73480662983425" y1="62" x2="207.73480662983425" y2="70" stroke="#5675F3"></line><line x1="211.27071823204423" y1="62" x2="211.27071823204423" y2="70" stroke="#5675F3"></line><line x1="213.03867403314916" y1="54" x2="213.03867403314916" y2="70" stroke="#5675F3"></line><line x1="17.67955801104972" y1="30" x2="17.67955801104972" y2="70" stroke="#7BDC90"></line><line x1="26.519337016574585" y1="30" x2="26.519337016574585" y2="70" stroke="#7BDC90"></line><line x1="32.707182320441994" y1="30" x2="32.707182320441994" y2="70" stroke="#7BDC90"></line><line x1="125.52486187845304" y1="30" x2="125.52486187845304" y2="70" stroke="#7BDC90"></line><line x1="193.59116022099448" y1="30" x2="193.59116022099448" y2="70" stroke="#7BDC90"></line><line x1="60.110497237569064" y1="30" x2="60.110497237569064" y2="70" stroke="#FF868F"></line><line x1="149.39226519337018" y1="30" x2="149.39226519337018" y2="70" stroke="#FF868F"></line><line x1="199.77900552486187" y1="30" x2="199.77900552486187" y2="70" stroke="#FF868F"></line></g><g transform="translate(0 150)"><rect y="30" height="40" width="539.2265193370166" fill-opacity="0" stroke="#C0C0C0"></rect><line x1="28.28729281767956" y1="62" x2="28.28729281767956" y2="70" stroke="#5675F3"></line><line x1="33.591160220994475" y1="62" x2="33.591160220994475" y2="70" stroke="#5675F3"></line><line x1="38.89502762430939" y1="62" x2="38.89502762430939" y2="70" stroke="#5675F3"></line><line x1="40.66298342541437" y1="62" x2="40.66298342541437" y2="70" stroke="#5675F3"></line><line x1="48.61878453038674" y1="62" x2="48.61878453038674" y2="70" stroke="#5675F3"></line><line x1="49.50276243093923" y1="62" x2="49.50276243093923" y2="70" stroke="#5675F3"></line><line x1="50.38674033149171" y1="62" x2="50.38674033149171" y2="70" stroke="#5675F3"></line><line x1="66.29834254143645" y1="54" x2="66.29834254143645" y2="70" stroke="#5675F3"></line><line x1="71.60220994475138" y1="54" x2="71.60220994475138" y2="70" stroke="#5675F3"></line><line x1="89.2817679558011" y1="62" x2="89.2817679558011" y2="70" stroke="#5675F3"></line><line x1="102.54143646408839" y1="62" x2="102.54143646408839" y2="70" stroke="#5675F3"></line><line x1="104.30939226519338" y1="62" x2="104.30939226519338" y2="70" stroke="#5675F3"></line><line x1="116.68508287292818" y1="62" x2="116.68508287292818" y2="70" stroke="#5675F3"></line><line x1="118.45303867403314" y1="54" x2="118.45303867403314" y2="70" stroke="#5675F3"></line><line x1="123.75690607734806" y1="62" x2="123.75690607734806" y2="70" stroke="#5675F3"></line><line x1="126.40883977900552" y1="54" x2="126.40883977900552" y2="70" stroke="#5675F3"></line><line x1="131.71270718232046" y1="62" x2="131.71270718232046" y2="70" stroke="#5675F3"></line><line x1="135.24861878453038" y1="54" x2="135.24861878453038" y2="70" stroke="#5675F3"></line><line x1="137.90055248618785" y1="62" x2="137.90055248618785" y2="70" stroke="#5675F3"></line><line x1="139.66850828729284" y1="62" x2="139.66850828729284" y2="70" stroke="#5675F3"></line><line x1="143.20441988950276" y1="62" x2="143.20441988950276" y2="70" stroke="#5675F3"></line><line x1="148.5082872928177" y1="62" x2="148.5082872928177" y2="70" stroke="#5675F3"></line><line x1="150.27624309392266" y1="62" x2="150.27624309392266" y2="70" stroke="#5675F3"></line><line x1="152.04419889502762" y1="54" x2="152.04419889502762" y2="70" stroke="#5675F3"></line><line x1="152.9281767955801" y1="62" x2="152.9281767955801" y2="70" stroke="#5675F3"></line><line x1="165.3038674033149" y1="62" x2="165.3038674033149" y2="70" stroke="#5675F3"></line><line x1="168.83977900552486" y1="62" x2="168.83977900552486" y2="70" stroke="#5675F3"></line><line x1="174.14364640883977" y1="62" x2="174.14364640883977" y2="70" stroke="#5675F3"></line><line x1="175.02762430939228" y1="62" x2="175.02762430939228" y2="70" stroke="#5675F3"></line><line x1="203.31491712707185" y1="62" x2="203.31491712707185" y2="70" stroke="#5675F3"></line><line x1="204.1988950276243" y1="62" x2="204.1988950276243" y2="70" stroke="#5675F3"></line><line x1="207.73480662983425" y1="62" x2="207.73480662983425" y2="70" stroke="#5675F3"></line><line x1="209.5027624309392" y1="62" x2="209.5027624309392" y2="70" stroke="#5675F3"></line><line x1="213.03867403314916" y1="62" x2="213.03867403314916" y2="70" stroke="#5675F3"></line><line x1="220.11049723756906" y1="62" x2="220.11049723756906" y2="70" stroke="#5675F3"></line><line x1="224.53038674033147" y1="46" x2="224.53038674033147" y2="70" stroke="#5675F3"></line><line x1="227.18232044198894" y1="62" x2="227.18232044198894" y2="70" stroke="#5675F3"></line><line x1="232.48618784530385" y1="62" x2="232.48618784530385" y2="70" stroke="#5675F3"></line><line x1="235.13812154696132" y1="62" x2="235.13812154696132" y2="70" stroke="#5675F3"></line><line x1="236.90607734806628" y1="62" x2="236.90607734806628" y2="70" stroke="#5675F3"></line><line x1="238.6740331491713" y1="62" x2="238.6740331491713" y2="70" stroke="#5675F3"></line><line x1="240.44198895027625" y1="62" x2="240.44198895027625" y2="70" stroke="#5675F3"></line><line x1="245.74585635359117" y1="46" x2="245.74585635359117" y2="70" stroke="#5675F3"></line><line x1="247.51381215469613" y1="62" x2="247.51381215469613" y2="70" stroke="#5675F3"></line><line x1="249.28176795580112" y1="62" x2="249.28176795580112" y2="70" stroke="#5675F3"></line><line x1="263.4254143646409" y1="54" x2="263.4254143646409" y2="70" stroke="#5675F3"></line><line x1="264.30939226519337" y1="46" x2="264.30939226519337" y2="70" stroke="#5675F3"></line><line x1="266.96132596685084" y1="54" x2="266.96132596685084" y2="70" stroke="#5675F3"></line><line x1="267.8453038674033" y1="38" x2="267.8453038674033" y2="70" stroke="#5675F3"></line><line x1="273.1491712707182" y1="62" x2="273.1491712707182" y2="70" stroke="#5675F3"></line><line x1="274.9171270718232" y1="62" x2="274.9171270718232" y2="70" stroke="#5675F3"></line><line x1="293.4806629834254" y1="62" x2="293.4806629834254" y2="70" stroke="#5675F3"></line><line x1="297.90055248618785" y1="62" x2="297.90055248618785" y2="70" stroke="#5675F3"></line><line x1="300.5524861878453" y1="62" x2="300.5524861878453" y2="70" stroke="#5675F3"></line><line x1="308.50828729281767" y1="62" x2="308.50828729281767" y2="70" stroke="#5675F3"></line><line x1="309.3922651933702" y1="62" x2="309.3922651933702" y2="70" stroke="#5675F3"></line><line x1="314.6961325966851" y1="62" x2="314.6961325966851" y2="70" stroke="#5675F3"></line><line x1="316.4640883977901" y1="62" x2="316.4640883977901" y2="70" stroke="#5675F3"></line><line x1="323.5359116022099" y1="62" x2="323.5359116022099" y2="70" stroke="#5675F3"></line><line x1="328.83977900552486" y1="62" x2="328.83977900552486" y2="70" stroke="#5675F3"></line><line x1="331.49171270718233" y1="62" x2="331.49171270718233" y2="70" stroke="#5675F3"></line><line x1="332.37569060773484" y1="62" x2="332.37569060773484" y2="70" stroke="#5675F3"></line><line x1="342.98342541436466" y1="62" x2="342.98342541436466" y2="70" stroke="#5675F3"></line><line x1="344.7513812154696" y1="62" x2="344.7513812154696" y2="70" stroke="#5675F3"></line><line x1="346.5193370165746" y1="62" x2="346.5193370165746" y2="70" stroke="#5675F3"></line><line x1="350.939226519337" y1="62" x2="350.939226519337" y2="70" stroke="#5675F3"></line><line x1="351.8232044198895" y1="62" x2="351.8232044198895" y2="70" stroke="#5675F3"></line><line x1="356.2430939226519" y1="62" x2="356.2430939226519" y2="70" stroke="#5675F3"></line><line x1="363.3149171270718" y1="62" x2="363.3149171270718" y2="70" stroke="#5675F3"></line><line x1="366.8508287292818" y1="62" x2="366.8508287292818" y2="70" stroke="#5675F3"></line><line x1="369.50276243093924" y1="62" x2="369.50276243093924" y2="70" stroke="#5675F3"></line><line x1="372.1546961325967" y1="30" x2="372.1546961325967" y2="70" stroke="#5675F3"></line><line x1="373.9226519337017" y1="54" x2="373.9226519337017" y2="70" stroke="#5675F3"></line><line x1="374.8066298342541" y1="62" x2="374.8066298342541" y2="70" stroke="#5675F3"></line><line x1="378.3425414364641" y1="62" x2="378.3425414364641" y2="70" stroke="#5675F3"></line><line x1="385.414364640884" y1="62" x2="385.414364640884" y2="70" stroke="#5675F3"></line><line x1="389.83425414364643" y1="62" x2="389.83425414364643" y2="70" stroke="#5675F3"></line><line x1="394.2541436464088" y1="62" x2="394.2541436464088" y2="70" stroke="#5675F3"></line><line x1="397.7900552486188" y1="62" x2="397.7900552486188" y2="70" stroke="#5675F3"></line><line x1="416.353591160221" y1="54" x2="416.353591160221" y2="70" stroke="#5675F3"></line><line x1="418.1215469613259" y1="62" x2="418.1215469613259" y2="70" stroke="#5675F3"></line><line x1="419.0055248618784" y1="54" x2="419.0055248618784" y2="70" stroke="#5675F3"></line><line x1="420.77348066298345" y1="62" x2="420.77348066298345" y2="70" stroke="#5675F3"></line><line x1="422.54143646408846" y1="62" x2="422.54143646408846" y2="70" stroke="#5675F3"></line><line x1="424.30939226519337" y1="62" x2="424.30939226519337" y2="70" stroke="#5675F3"></line><line x1="426.96132596685084" y1="62" x2="426.96132596685084" y2="70" stroke="#5675F3"></line><line x1="445.52486187845307" y1="62" x2="445.52486187845307" y2="70" stroke="#5675F3"></line><line x1="448.1767955801105" y1="62" x2="448.1767955801105" y2="70" stroke="#5675F3"></line><line x1="449.94475138121544" y1="62" x2="449.94475138121544" y2="70" stroke="#5675F3"></line><line x1="452.59668508287297" y1="62" x2="452.59668508287297" y2="70" stroke="#5675F3"></line><line x1="455.2486187845304" y1="62" x2="455.2486187845304" y2="70" stroke="#5675F3"></line><line x1="457.9005524861879" y1="62" x2="457.9005524861879" y2="70" stroke="#5675F3"></line><line x1="458.7845303867403" y1="62" x2="458.7845303867403" y2="70" stroke="#5675F3"></line><line x1="460.5524861878453" y1="62" x2="460.5524861878453" y2="70" stroke="#5675F3"></line><line x1="462.3204419889503" y1="62" x2="462.3204419889503" y2="70" stroke="#5675F3"></line><line x1="473.81215469613255" y1="54" x2="473.81215469613255" y2="70" stroke="#5675F3"></line><line x1="479.1160220994475" y1="46" x2="479.1160220994475" y2="70" stroke="#5675F3"></line><line x1="480.8839779005525" y1="62" x2="480.8839779005525" y2="70" stroke="#5675F3"></line><line x1="485.3038674033149" y1="54" x2="485.3038674033149" y2="70" stroke="#5675F3"></line><line x1="487.9558011049724" y1="62" x2="487.9558011049724" y2="70" stroke="#5675F3"></line><line x1="489.7237569060773" y1="62" x2="489.7237569060773" y2="70" stroke="#5675F3"></line><line x1="492.37569060773484" y1="62" x2="492.37569060773484" y2="70" stroke="#5675F3"></line><line x1="495.02762430939225" y1="62" x2="495.02762430939225" y2="70" stroke="#5675F3"></line><line x1="496.79558011049727" y1="62" x2="496.79558011049727" y2="70" stroke="#5675F3"></line><line x1="505.6353591160221" y1="62" x2="505.6353591160221" y2="70" stroke="#5675F3"></line><line x1="510.0552486187845" y1="62" x2="510.0552486187845" y2="70" stroke="#5675F3"></line><line x1="512.707182320442" y1="62" x2="512.707182320442" y2="70" stroke="#5675F3"></line><line x1="526.8508287292818" y1="54" x2="526.8508287292818" y2="70" stroke="#5675F3"></line><line x1="527.7348066298342" y1="62" x2="527.7348066298342" y2="70" stroke="#5675F3"></line><line x1="528.6187845303867" y1="62" x2="528.6187845303867" y2="70" stroke="#5675F3"></line><line x1="530.3867403314916" y1="54" x2="530.3867403314916" y2="70" stroke="#5675F3"></line><line x1="533.0386740331492" y1="62" x2="533.0386740331492" y2="70" stroke="#5675F3"></line><line x1="534.8066298342541" y1="62" x2="534.8066298342541" y2="70" stroke="#5675F3"></line><line x1="9.723756906077348" y1="30" x2="9.723756906077348" y2="70" stroke="#7BDC90"></line><line x1="286.4088397790055" y1="30" x2="286.4088397790055" y2="70" stroke="#7BDC90"></line><line x1="434.0331491712707" y1="30" x2="434.0331491712707" y2="70" stroke="#7BDC90"></line><line x1="79.55801104972376" y1="30" x2="79.55801104972376" y2="70" stroke="#FF868F"></line><line x1="333.2596685082873" y1="30" x2="333.2596685082873" y2="70" stroke="#FF868F"></line><line x1="466.7403314917127" y1="30" x2="466.7403314917127" y2="70" stroke="#FF868F"></line></g><g transform="translate(0 200)"><rect y="30" height="40" width="407.51381215469615" fill-opacity="0" stroke="#C0C0C0"></rect><line x1="30.055248618784532" y1="62" x2="30.055248618784532" y2="70" stroke="#5675F3"></line><line x1="38.89502762430939" y1="62" x2="38.89502762430939" y2="70" stroke="#5675F3"></line><line x1="41.546961325966855" y1="62" x2="41.546961325966855" y2="70" stroke="#5675F3"></line><line x1="42.430939226519335" y1="62" x2="42.430939226519335" y2="70" stroke="#5675F3"></line><line x1="44.19889502762431" y1="62" x2="44.19889502762431" y2="70" stroke="#5675F3"></line><line x1="60.99447513812155" y1="62" x2="60.99447513812155" y2="70" stroke="#5675F3"></line><line x1="61.87845303867403" y1="62" x2="61.87845303867403" y2="70" stroke="#5675F3"></line><line x1="63.646408839779" y1="62" x2="63.646408839779" y2="70" stroke="#5675F3"></line><line x1="67.18232044198895" y1="62" x2="67.18232044198895" y2="70" stroke="#5675F3"></line><line x1="69.83425414364642" y1="62" x2="69.83425414364642" y2="70" stroke="#5675F3"></line><line x1="73.37016574585635" y1="62" x2="73.37016574585635" y2="70" stroke="#5675F3"></line><line x1="75.13812154696133" y1="62" x2="75.13812154696133" y2="70" stroke="#5675F3"></line><line x1="76.90607734806629" y1="62" x2="76.90607734806629" y2="70" stroke="#5675F3"></line><line x1="79.55801104972376" y1="62" x2="79.55801104972376" y2="70" stroke="#5675F3"></line><line x1="81.32596685082873" y1="62" x2="81.32596685082873" y2="70" stroke="#5675F3"></line><line x1="83.09392265193371" y1="62" x2="83.09392265193371" y2="70" stroke="#5675F3"></line><line x1="95.4696132596685" y1="46" x2="95.4696132596685" y2="70" stroke="#5675F3"></line><line x1="96.353591160221" y1="38" x2="96.353591160221" y2="70" stroke="#5675F3"></line><line x1="98.12154696132596" y1="62" x2="98.12154696132596" y2="70" stroke="#5675F3"></line><line x1="99.00552486187846" y1="54" x2="99.00552486187846" y2="70" stroke="#5675F3"></line><line x1="107.84530386740332" y1="54" x2="107.84530386740332" y2="70" stroke="#5675F3"></line><line x1="113.14917127071824" y1="54" x2="113.14917127071824" y2="70" stroke="#5675F3"></line><line x1="114.9171270718232" y1="62" x2="114.9171270718232" y2="70" stroke="#5675F3"></line><line x1="115.8011049723757" y1="62" x2="115.8011049723757" y2="70" stroke="#5675F3"></line><line x1="119.33701657458565" y1="62" x2="119.33701657458565" y2="70" stroke="#5675F3"></line><line x1="124.64088397790056" y1="62" x2="124.64088397790056" y2="70" stroke="#5675F3"></line><line x1="125.52486187845304" y1="62" x2="125.52486187845304" y2="70" stroke="#5675F3"></line><line x1="129.060773480663" y1="62" x2="129.060773480663" y2="70" stroke="#5675F3"></line><line x1="134.3646408839779" y1="54" x2="134.3646408839779" y2="70" stroke="#5675F3"></line><line x1="135.24861878453038" y1="62" x2="135.24861878453038" y2="70" stroke="#5675F3"></line><line x1="137.90055248618785" y1="62" x2="137.90055248618785" y2="70" stroke="#5675F3"></line><line x1="143.20441988950276" y1="54" x2="143.20441988950276" y2="70" stroke="#5675F3"></line><line x1="152.9281767955801" y1="38" x2="152.9281767955801" y2="70" stroke="#5675F3"></line><line x1="156.46408839779005" y1="38" x2="156.46408839779005" y2="70" stroke="#5675F3"></line><line x1="158.23204419889504" y1="62" x2="158.23204419889504" y2="70" stroke="#5675F3"></line><line x1="159.11602209944752" y1="54" x2="159.11602209944752" y2="70" stroke="#5675F3"></line><line x1="160.88397790055248" y1="62" x2="160.88397790055248" y2="70" stroke="#5675F3"></line><line x1="187.40331491712706" y1="62" x2="187.40331491712706" y2="70" stroke="#5675F3"></line><line x1="193.59116022099448" y1="62" x2="193.59116022099448" y2="70" stroke="#5675F3"></line><line x1="197.1270718232044" y1="62" x2="197.1270718232044" y2="70" stroke="#5675F3"></line><line x1="198.8950276243094" y1="62" x2="198.8950276243094" y2="70" stroke="#5675F3"></line><line x1="201.54696132596683" y1="62" x2="201.54696132596683" y2="70" stroke="#5675F3"></line><line x1="207.73480662983425" y1="62" x2="207.73480662983425" y2="70" stroke="#5675F3"></line><line x1="210.38674033149172" y1="62" x2="210.38674033149172" y2="70" stroke="#5675F3"></line><line x1="216.57458563535909" y1="62" x2="216.57458563535909" y2="70" stroke="#5675F3"></line><line x1="233.37016574585635" y1="62" x2="233.37016574585635" y2="70" stroke="#5675F3"></line><line x1="236.02209944751382" y1="62" x2="236.02209944751382" y2="70" stroke="#5675F3"></line><line x1="237.79005524861878" y1="62" x2="237.79005524861878" y2="70" stroke="#5675F3"></line><line x1="239.55801104972375" y1="62" x2="239.55801104972375" y2="70" stroke="#5675F3"></line><line x1="241.32596685082873" y1="62" x2="241.32596685082873" y2="70" stroke="#5675F3"></line><line x1="243.9779005524862" y1="62" x2="243.9779005524862" y2="70" stroke="#5675F3"></line><line x1="247.51381215469613" y1="62" x2="247.51381215469613" y2="70" stroke="#5675F3"></line><line x1="248.39779005524863" y1="62" x2="248.39779005524863" y2="70" stroke="#5675F3"></line><line x1="252.81767955801104" y1="62" x2="252.81767955801104" y2="70" stroke="#5675F3"></line><line x1="255.4696132596685" y1="62" x2="255.4696132596685" y2="70" stroke="#5675F3"></line><line x1="276.6850828729282" y1="54" x2="276.6850828729282" y2="70" stroke="#5675F3"></line><line x1="277.56906077348066" y1="46" x2="277.56906077348066" y2="70" stroke="#5675F3"></line><line x1="280.2209944751381" y1="62" x2="280.2209944751381" y2="70" stroke="#5675F3"></line><line x1="281.10497237569064" y1="54" x2="281.10497237569064" y2="70" stroke="#5675F3"></line><line x1="293.4806629834254" y1="62" x2="293.4806629834254" y2="70" stroke="#5675F3"></line><line x1="294.3646408839779" y1="62" x2="294.3646408839779" y2="70" stroke="#5675F3"></line><line x1="297.0165745856354" y1="54" x2="297.0165745856354" y2="70" stroke="#5675F3"></line><line x1="298.78453038674036" y1="62" x2="298.78453038674036" y2="70" stroke="#5675F3"></line><line x1="300.5524861878453" y1="62" x2="300.5524861878453" y2="70" stroke="#5675F3"></line><line x1="307.62430939226516" y1="62" x2="307.62430939226516" y2="70" stroke="#5675F3"></line><line x1="308.50828729281767" y1="62" x2="308.50828729281767" y2="70" stroke="#5675F3"></line><line x1="311.16022099447514" y1="62" x2="311.16022099447514" y2="70" stroke="#5675F3"></line><line x1="312.04419889502765" y1="62" x2="312.04419889502765" y2="70" stroke="#5675F3"></line><line x1="315.58011049723757" y1="62" x2="315.58011049723757" y2="70" stroke="#5675F3"></line><line x1="320.88397790055245" y1="62" x2="320.88397790055245" y2="70" stroke="#5675F3"></line><line x1="324.41988950276243" y1="62" x2="324.41988950276243" y2="70" stroke="#5675F3"></line><line x1="326.1878453038674" y1="62" x2="326.1878453038674" y2="70" stroke="#5675F3"></line><line x1="327.95580110497235" y1="62" x2="327.95580110497235" y2="70" stroke="#5675F3"></line><line x1="328.83977900552486" y1="62" x2="328.83977900552486" y2="70" stroke="#5675F3"></line><line x1="340.3314917127072" y1="62" x2="340.3314917127072" y2="70" stroke="#5675F3"></line><line x1="342.09944751381215" y1="46" x2="342.09944751381215" y2="70" stroke="#5675F3"></line><line x1="352.70718232044203" y1="62" x2="352.70718232044203" y2="70" stroke="#5675F3"></line><line x1="354.47513812154693" y1="62" x2="354.47513812154693" y2="70" stroke="#5675F3"></line><line x1="355.35911602209944" y1="62" x2="355.35911602209944" y2="70" stroke="#5675F3"></line><line x1="357.1270718232044" y1="54" x2="357.1270718232044" y2="70" stroke="#5675F3"></line><line x1="364.1988950276243" y1="62" x2="364.1988950276243" y2="70" stroke="#5675F3"></line><line x1="365.0828729281768" y1="62" x2="365.0828729281768" y2="70" stroke="#5675F3"></line><line x1="366.8508287292818" y1="62" x2="366.8508287292818" y2="70" stroke="#5675F3"></line><line x1="368.61878453038673" y1="62" x2="368.61878453038673" y2="70" stroke="#5675F3"></line><line x1="372.1546961325967" y1="62" x2="372.1546961325967" y2="70" stroke="#5675F3"></line><line x1="373.9226519337017" y1="62" x2="373.9226519337017" y2="70" stroke="#5675F3"></line><line x1="375.69060773480663" y1="62" x2="375.69060773480663" y2="70" stroke="#5675F3"></line><line x1="378.3425414364641" y1="62" x2="378.3425414364641" y2="70" stroke="#5675F3"></line><line x1="380.9944751381216" y1="54" x2="380.9944751381216" y2="70" stroke="#5675F3"></line><line x1="382.76243093922653" y1="62" x2="382.76243093922653" y2="70" stroke="#5675F3"></line><line x1="394.2541436464088" y1="54" x2="394.2541436464088" y2="70" stroke="#5675F3"></line><line x1="396.0220994475138" y1="46" x2="396.0220994475138" y2="70" stroke="#5675F3"></line><line x1="401.32596685082876" y1="62" x2="401.32596685082876" y2="70" stroke="#5675F3"></line><line x1="403.09392265193367" y1="62" x2="403.09392265193367" y2="70" stroke="#5675F3"></line><line x1="12.375690607734807" y1="30" x2="12.375690607734807" y2="70" stroke="#7BDC90"></line><line x1="101.65745856353593" y1="30" x2="101.65745856353593" y2="70" stroke="#7BDC90"></line><line x1="175.91160220994476" y1="30" x2="175.91160220994476" y2="70" stroke="#7BDC90"></line><line x1="284.64088397790056" y1="30" x2="284.64088397790056" y2="70" stroke="#7BDC90"></line><line x1="339.4475138121547" y1="30" x2="339.4475138121547" y2="70" stroke="#7BDC90"></line><line x1="45.0828729281768" y1="30" x2="45.0828729281768" y2="70" stroke="#FF868F"></line><line x1="120.22099447513813" y1="30" x2="120.22099447513813" y2="70" stroke="#FF868F"></line><line x1="212.15469613259668" y1="30" x2="212.15469613259668" y2="70" stroke="#FF868F"></line><line x1="304.08839779005524" y1="30" x2="304.08839779005524" y2="70" stroke="#FF868F"></line></g><g transform="translate(0 250)"><rect y="30" height="40" width="344.7513812154696" fill-opacity="0" stroke="#C0C0C0"></rect><line x1="41.546961325966855" y1="62" x2="41.546961325966855" y2="70" stroke="#FFC63F"></line><line x1="46.850828729281766" y1="62" x2="46.850828729281766" y2="70" stroke="#FFC63F"></line><line x1="53.92265193370166" y1="62" x2="53.92265193370166" y2="70" stroke="#FFC63F"></line><line x1="60.110497237569064" y1="62" x2="60.110497237569064" y2="70" stroke="#FFC63F"></line><line x1="61.87845303867403" y1="62" x2="61.87845303867403" y2="70" stroke="#FFC63F"></line><line x1="66.29834254143645" y1="62" x2="66.29834254143645" y2="70" stroke="#FFC63F"></line><line x1="108.7292817679558" y1="62" x2="108.7292817679558" y2="70" stroke="#FFC63F"></line><line x1="110.49723756906079" y1="62" x2="110.49723756906079" y2="70" stroke="#FFC63F"></line><line x1="113.14917127071824" y1="62" x2="113.14917127071824" y2="70" stroke="#FFC63F"></line><line x1="117.56906077348066" y1="62" x2="117.56906077348066" y2="70" stroke="#FFC63F"></line><line x1="123.75690607734806" y1="62" x2="123.75690607734806" y2="70" stroke="#FFC63F"></line><line x1="125.52486187845304" y1="62" x2="125.52486187845304" y2="70" stroke="#FFC63F"></line><line x1="130.82872928176798" y1="62" x2="130.82872928176798" y2="70" stroke="#FFC63F"></line><line x1="134.3646408839779" y1="62" x2="134.3646408839779" y2="70" stroke="#FFC63F"></line><line x1="137.01657458563537" y1="62" x2="137.01657458563537" y2="70" stroke="#FFC63F"></line><line x1="137.90055248618785" y1="62" x2="137.90055248618785" y2="70" stroke="#FFC63F"></line><line x1="142.32044198895028" y1="62" x2="142.32044198895028" y2="70" stroke="#FFC63F"></line><line x1="142.32044198895028" y1="62" x2="142.32044198895028" y2="70" stroke="#FFC63F"></line><line x1="145.85635359116023" y1="62" x2="145.85635359116023" y2="70" stroke="#FFC63F"></line><line x1="156.46408839779005" y1="62" x2="156.46408839779005" y2="70" stroke="#FFC63F"></line><line x1="157.34806629834256" y1="62" x2="157.34806629834256" y2="70" stroke="#FFC63F"></line><line x1="160.88397790055248" y1="62" x2="160.88397790055248" y2="70" stroke="#FFC63F"></line><line x1="185.6353591160221" y1="62" x2="185.6353591160221" y2="70" stroke="#FFC63F"></line><line x1="198.8950276243094" y1="62" x2="198.8950276243094" y2="70" stroke="#FFC63F"></line><line x1="198.8950276243094" y1="62" x2="198.8950276243094" y2="70" stroke="#FFC63F"></line><line x1="199.77900552486187" y1="62" x2="199.77900552486187" y2="70" stroke="#FFC63F"></line><line x1="200.66298342541438" y1="62" x2="200.66298342541438" y2="70" stroke="#FFC63F"></line><line x1="201.54696132596683" y1="62" x2="201.54696132596683" y2="70" stroke="#FFC63F"></line><line x1="202.43093922651934" y1="62" x2="202.43093922651934" y2="70" stroke="#FFC63F"></line><line x1="203.31491712707185" y1="62" x2="203.31491712707185" y2="70" stroke="#FFC63F"></line><line x1="204.1988950276243" y1="62" x2="204.1988950276243" y2="70" stroke="#FFC63F"></line><line x1="206.85082872928174" y1="62" x2="206.85082872928174" y2="70" stroke="#FFC63F"></line><line x1="212.15469613259668" y1="62" x2="212.15469613259668" y2="70" stroke="#FFC63F"></line><line x1="213.03867403314916" y1="62" x2="213.03867403314916" y2="70" stroke="#FFC63F"></line><line x1="216.57458563535909" y1="62" x2="216.57458563535909" y2="70" stroke="#FFC63F"></line><line x1="217.4585635359116" y1="62" x2="217.4585635359116" y2="70" stroke="#FFC63F"></line><line x1="229.8342541436464" y1="62" x2="229.8342541436464" y2="70" stroke="#FFC63F"></line><line x1="231.6022099447514" y1="62" x2="231.6022099447514" y2="70" stroke="#FFC63F"></line><line x1="233.37016574585635" y1="62" x2="233.37016574585635" y2="70" stroke="#FFC63F"></line><line x1="237.79005524861878" y1="62" x2="237.79005524861878" y2="70" stroke="#FFC63F"></line><line x1="238.6740331491713" y1="62" x2="238.6740331491713" y2="70" stroke="#FFC63F"></line><line x1="239.55801104972375" y1="62" x2="239.55801104972375" y2="70" stroke="#FFC63F"></line><line x1="243.9779005524862" y1="62" x2="243.9779005524862" y2="70" stroke="#FFC63F"></line><line x1="247.51381215469613" y1="62" x2="247.51381215469613" y2="70" stroke="#FFC63F"></line><line x1="271.38121546961327" y1="46" x2="271.38121546961327" y2="70" stroke="#FFC63F"></line><line x1="271.38121546961327" y1="54" x2="271.38121546961327" y2="70" stroke="#FFC63F"></line><line x1="273.1491712707182" y1="54" x2="273.1491712707182" y2="70" stroke="#FFC63F"></line><line x1="274.03314917127074" y1="54" x2="274.03314917127074" y2="70" stroke="#FFC63F"></line><line x1="275.8011049723757" y1="62" x2="275.8011049723757" y2="70" stroke="#FFC63F"></line><line x1="291.71270718232046" y1="62" x2="291.71270718232046" y2="70" stroke="#FFC63F"></line><line x1="295.2486187845304" y1="62" x2="295.2486187845304" y2="70" stroke="#FFC63F"></line><line x1="297.0165745856354" y1="62" x2="297.0165745856354" y2="70" stroke="#FFC63F"></line><line x1="302.3204419889503" y1="62" x2="302.3204419889503" y2="70" stroke="#FFC63F"></line><line x1="304.08839779005524" y1="62" x2="304.08839779005524" y2="70" stroke="#FFC63F"></line><line x1="305.8563535911602" y1="62" x2="305.8563535911602" y2="70" stroke="#FFC63F"></line><line x1="308.50828729281767" y1="62" x2="308.50828729281767" y2="70" stroke="#FFC63F"></line><line x1="318.23204419889504" y1="62" x2="318.23204419889504" y2="70" stroke="#FFC63F"></line><line x1="320" y1="62" x2="320" y2="70" stroke="#FFC63F"></line><line x1="320.88397790055245" y1="62" x2="320.88397790055245" y2="70" stroke="#FFC63F"></line><line x1="321.76795580110496" y1="62" x2="321.76795580110496" y2="70" stroke="#FFC63F"></line><line x1="325.30386740331494" y1="62" x2="325.30386740331494" y2="70" stroke="#FFC63F"></line><line x1="326.1878453038674" y1="62" x2="326.1878453038674" y2="70" stroke="#FFC63F"></line><line x1="335.91160220994476" y1="54" x2="335.91160220994476" y2="70" stroke="#FFC63F"></line><line x1="336.7955801104972" y1="30" x2="336.7955801104972" y2="70" stroke="#FFC63F"></line><line x1="339.4475138121547" y1="62" x2="339.4475138121547" y2="70" stroke="#FFC63F"></line><line x1="340.3314917127072" y1="62" x2="340.3314917127072" y2="70" stroke="#FFC63F"></line><line x1="17.67955801104972" y1="30" x2="17.67955801104972" y2="70" stroke="#7BDC90"></line><line x1="181.21546961325967" y1="30" x2="181.21546961325967" y2="70" stroke="#7BDC90"></line><line x1="190.939226519337" y1="30" x2="190.939226519337" y2="70" stroke="#7BDC90"></line><line x1="267.8453038674033" y1="30" x2="267.8453038674033" y2="70" stroke="#7BDC90"></line><line x1="81.32596685082873" y1="30" x2="81.32596685082873" y2="70" stroke="#FF868F"></line><line x1="225.41436464088397" y1="30" x2="225.41436464088397" y2="70" stroke="#FF868F"></line><line x1="316.4640883977901" y1="30" x2="316.4640883977901" y2="70" stroke="#FF868F"></line></g><g transform="translate(0 300)"><rect y="30" height="40" width="329.72375690607737" fill-opacity="0" stroke="#C0C0C0"></rect><line x1="14.14364640883978" y1="62" x2="14.14364640883978" y2="70" stroke="#FFC63F"></line><line x1="31.8232044198895" y1="62" x2="31.8232044198895" y2="70" stroke="#FFC63F"></line><line x1="46.850828729281766" y1="62" x2="46.850828729281766" y2="70" stroke="#FFC63F"></line><line x1="52.15469613259669" y1="62" x2="52.15469613259669" y2="70" stroke="#FFC63F"></line><line x1="57.4585635359116" y1="62" x2="57.4585635359116" y2="70" stroke="#FFC63F"></line><line x1="60.110497237569064" y1="62" x2="60.110497237569064" y2="70" stroke="#FFC63F"></line><line x1="80.44198895027624" y1="62" x2="80.44198895027624" y2="70" stroke="#FFC63F"></line><line x1="83.09392265193371" y1="62" x2="83.09392265193371" y2="70" stroke="#FFC63F"></line><line x1="85.74585635359117" y1="62" x2="85.74585635359117" y2="70" stroke="#FFC63F"></line><line x1="90.1657458563536" y1="62" x2="90.1657458563536" y2="70" stroke="#FFC63F"></line><line x1="91.93370165745857" y1="62" x2="91.93370165745857" y2="70" stroke="#FFC63F"></line><line x1="105.19337016574586" y1="62" x2="105.19337016574586" y2="70" stroke="#FFC63F"></line><line x1="106.96132596685084" y1="62" x2="106.96132596685084" y2="70" stroke="#FFC63F"></line><line x1="108.7292817679558" y1="62" x2="108.7292817679558" y2="70" stroke="#FFC63F"></line><line x1="110.49723756906079" y1="62" x2="110.49723756906079" y2="70" stroke="#FFC63F"></line><line x1="115.8011049723757" y1="62" x2="115.8011049723757" y2="70" stroke="#FFC63F"></line><line x1="117.56906077348066" y1="62" x2="117.56906077348066" y2="70" stroke="#FFC63F"></line><line x1="118.45303867403314" y1="62" x2="118.45303867403314" y2="70" stroke="#FFC63F"></line><line x1="132.5966850828729" y1="46" x2="132.5966850828729" y2="70" stroke="#FFC63F"></line><line x1="133.48066298342542" y1="46" x2="133.48066298342542" y2="70" stroke="#FFC63F"></line><line x1="136.13259668508286" y1="62" x2="136.13259668508286" y2="70" stroke="#FFC63F"></line><line x1="137.01657458563537" y1="62" x2="137.01657458563537" y2="70" stroke="#FFC63F"></line><line x1="137.90055248618785" y1="62" x2="137.90055248618785" y2="70" stroke="#FFC63F"></line><line x1="165.3038674033149" y1="62" x2="165.3038674033149" y2="70" stroke="#FFC63F"></line><line x1="166.18784530386742" y1="62" x2="166.18784530386742" y2="70" stroke="#FFC63F"></line><line x1="175.91160220994476" y1="62" x2="175.91160220994476" y2="70" stroke="#FFC63F"></line><line x1="185.6353591160221" y1="62" x2="185.6353591160221" y2="70" stroke="#FFC63F"></line><line x1="186.51933701657458" y1="62" x2="186.51933701657458" y2="70" stroke="#FFC63F"></line><line x1="193.59116022099448" y1="62" x2="193.59116022099448" y2="70" stroke="#FFC63F"></line><line x1="197.1270718232044" y1="62" x2="197.1270718232044" y2="70" stroke="#FFC63F"></line><line x1="198.0110497237569" y1="62" x2="198.0110497237569" y2="70" stroke="#FFC63F"></line><line x1="200.66298342541438" y1="62" x2="200.66298342541438" y2="70" stroke="#FFC63F"></line><line x1="201.54696132596683" y1="62" x2="201.54696132596683" y2="70" stroke="#FFC63F"></line><line x1="202.43093922651934" y1="62" x2="202.43093922651934" y2="70" stroke="#FFC63F"></line><line x1="205.08287292817678" y1="62" x2="205.08287292817678" y2="70" stroke="#FFC63F"></line><line x1="205.9668508287293" y1="62" x2="205.9668508287293" y2="70" stroke="#FFC63F"></line><line x1="208.61878453038676" y1="62" x2="208.61878453038676" y2="70" stroke="#FFC63F"></line><line x1="210.38674033149172" y1="62" x2="210.38674033149172" y2="70" stroke="#FFC63F"></line><line x1="213.03867403314916" y1="62" x2="213.03867403314916" y2="70" stroke="#FFC63F"></line><line x1="214.80662983425412" y1="62" x2="214.80662983425412" y2="70" stroke="#FFC63F"></line><line x1="216.57458563535909" y1="62" x2="216.57458563535909" y2="70" stroke="#FFC63F"></line><line x1="218.3425414364641" y1="62" x2="218.3425414364641" y2="70" stroke="#FFC63F"></line><line x1="220.11049723756906" y1="62" x2="220.11049723756906" y2="70" stroke="#FFC63F"></line><line x1="234.2541436464088" y1="62" x2="234.2541436464088" y2="70" stroke="#FFC63F"></line><line x1="235.13812154696132" y1="30" x2="235.13812154696132" y2="70" stroke="#FFC63F"></line><line x1="238.6740331491713" y1="62" x2="238.6740331491713" y2="70" stroke="#FFC63F"></line><line x1="237.79005524861878" y1="54" x2="237.79005524861878" y2="70" stroke="#FFC63F"></line><line x1="239.55801104972375" y1="54" x2="239.55801104972375" y2="70" stroke="#FFC63F"></line><line x1="240.44198895027625" y1="62" x2="240.44198895027625" y2="70" stroke="#FFC63F"></line><line x1="252.81767955801104" y1="62" x2="252.81767955801104" y2="70" stroke="#FFC63F"></line><line x1="254.585635359116" y1="62" x2="254.585635359116" y2="70" stroke="#FFC63F"></line><line x1="259.0055248618785" y1="62" x2="259.0055248618785" y2="70" stroke="#FFC63F"></line><line x1="260.77348066298345" y1="62" x2="260.77348066298345" y2="70" stroke="#FFC63F"></line><line x1="262.5414364640884" y1="62" x2="262.5414364640884" y2="70" stroke="#FFC63F"></line><line x1="263.4254143646409" y1="62" x2="263.4254143646409" y2="70" stroke="#FFC63F"></line><line x1="266.96132596685084" y1="62" x2="266.96132596685084" y2="70" stroke="#FFC63F"></line><line x1="268.7292817679558" y1="62" x2="268.7292817679558" y2="70" stroke="#FFC63F"></line><line x1="271.38121546961327" y1="62" x2="271.38121546961327" y2="70" stroke="#FFC63F"></line><line x1="274.9171270718232" y1="62" x2="274.9171270718232" y2="70" stroke="#FFC63F"></line><line x1="280.2209944751381" y1="62" x2="280.2209944751381" y2="70" stroke="#FFC63F"></line><line x1="280.2209944751381" y1="62" x2="280.2209944751381" y2="70" stroke="#FFC63F"></line><line x1="289.94475138121544" y1="38" x2="289.94475138121544" y2="70" stroke="#FFC63F"></line><line x1="291.71270718232046" y1="54" x2="291.71270718232046" y2="70" stroke="#FFC63F"></line><line x1="292.5966850828729" y1="62" x2="292.5966850828729" y2="70" stroke="#FFC63F"></line><line x1="295.2486187845304" y1="54" x2="295.2486187845304" y2="70" stroke="#FFC63F"></line><line x1="299.6685082872928" y1="62" x2="299.6685082872928" y2="70" stroke="#FFC63F"></line><line x1="302.3204419889503" y1="62" x2="302.3204419889503" y2="70" stroke="#FFC63F"></line><line x1="304.97237569060775" y1="62" x2="304.97237569060775" y2="70" stroke="#FFC63F"></line><line x1="307.62430939226516" y1="62" x2="307.62430939226516" y2="70" stroke="#FFC63F"></line><line x1="308.50828729281767" y1="62" x2="308.50828729281767" y2="70" stroke="#FFC63F"></line><line x1="311.16022099447514" y1="62" x2="311.16022099447514" y2="70" stroke="#FFC63F"></line><line x1="312.04419889502765" y1="62" x2="312.04419889502765" y2="70" stroke="#FFC63F"></line><line x1="312.9281767955801" y1="62" x2="312.9281767955801" y2="70" stroke="#FFC63F"></line><line x1="315.58011049723757" y1="62" x2="315.58011049723757" y2="70" stroke="#FFC63F"></line><line x1="316.4640883977901" y1="62" x2="316.4640883977901" y2="70" stroke="#FFC63F"></line><line x1="318.23204419889504" y1="62" x2="318.23204419889504" y2="70" stroke="#FFC63F"></line><line x1="321.76795580110496" y1="62" x2="321.76795580110496" y2="70" stroke="#FFC63F"></line><line x1="323.5359116022099" y1="62" x2="323.5359116022099" y2="70" stroke="#FFC63F"></line><line x1="325.30386740331494" y1="62" x2="325.30386740331494" y2="70" stroke="#FFC63F"></line><line x1="28.28729281767956" y1="30" x2="28.28729281767956" y2="70" stroke="#7BDC90"></line><line x1="130.82872928176798" y1="30" x2="130.82872928176798" y2="70" stroke="#7BDC90"></line><line x1="233.37016574585635" y1="30" x2="233.37016574585635" y2="70" stroke="#7BDC90"></line><line x1="289.060773480663" y1="30" x2="289.060773480663" y2="70" stroke="#7BDC90"></line><line x1="66.29834254143645" y1="30" x2="66.29834254143645" y2="70" stroke="#FF868F"></line><line x1="189.17127071823205" y1="30" x2="189.17127071823205" y2="70" stroke="#FF868F"></line><line x1="266.0773480662983" y1="30" x2="266.0773480662983" y2="70" stroke="#FF868F"></line><line x1="320" y1="30" x2="320" y2="70" stroke="#FF868F"></line></g><g transform="translate(0 350)"><rect y="30" height="40" width="130.82872928176798" fill-opacity="0" stroke="#C0C0C0"></rect><line x1="19.447513812154696" y1="62" x2="19.447513812154696" y2="70" stroke="#FFC63F"></line><line x1="40.66298342541437" y1="62" x2="40.66298342541437" y2="70" stroke="#FFC63F"></line><line x1="42.430939226519335" y1="62" x2="42.430939226519335" y2="70" stroke="#FFC63F"></line><line x1="45.966850828729285" y1="62" x2="45.966850828729285" y2="70" stroke="#FFC63F"></line><line x1="48.61878453038674" y1="62" x2="48.61878453038674" y2="70" stroke="#FFC63F"></line><line x1="54.80662983425414" y1="62" x2="54.80662983425414" y2="70" stroke="#FFC63F"></line><line x1="56.57458563535912" y1="62" x2="56.57458563535912" y2="70" stroke="#FFC63F"></line><line x1="57.4585635359116" y1="62" x2="57.4585635359116" y2="70" stroke="#FFC63F"></line><line x1="64.5303867403315" y1="62" x2="64.5303867403315" y2="70" stroke="#FFC63F"></line><line x1="68.06629834254143" y1="54" x2="68.06629834254143" y2="70" stroke="#FFC63F"></line><line x1="68.95027624309392" y1="62" x2="68.95027624309392" y2="70" stroke="#FFC63F"></line><line x1="72.48618784530386" y1="62" x2="72.48618784530386" y2="70" stroke="#FFC63F"></line><line x1="123.75690607734806" y1="62" x2="123.75690607734806" y2="70" stroke="#FFC63F"></line><line x1="126.40883977900552" y1="62" x2="126.40883977900552" y2="70" stroke="#FFC63F"></line><line x1="126.40883977900552" y1="62" x2="126.40883977900552" y2="70" stroke="#FFC63F"></line><line x1="30.939226519337016" y1="30" x2="30.939226519337016" y2="70" stroke="#7BDC90"></line><line x1="106.96132596685084" y1="30" x2="106.96132596685084" y2="70" stroke="#7BDC90"></line><line x1="73.37016574585635" y1="30" x2="73.37016574585635" y2="70" stroke="#FF868F"></line><line x1="106.96132596685084" y1="30" x2="106.96132596685084" y2="70" stroke="#FF868F"></line></g><g transform="translate(0 400)"><rect y="30" height="40" width="276.6850828729282" fill-opacity="0" stroke="#C0C0C0"></rect><line x1="30.055248618784532" y1="62" x2="30.055248618784532" y2="70" stroke="#FFC63F"></line><line x1="32.707182320441994" y1="62" x2="32.707182320441994" y2="70" stroke="#FFC63F"></line><line x1="34.47513812154696" y1="62" x2="34.47513812154696" y2="70" stroke="#FFC63F"></line><line x1="38.89502762430939" y1="62" x2="38.89502762430939" y2="70" stroke="#FFC63F"></line><line x1="41.546961325966855" y1="62" x2="41.546961325966855" y2="70" stroke="#FFC63F"></line><line x1="45.966850828729285" y1="62" x2="45.966850828729285" y2="70" stroke="#FFC63F"></line><line x1="48.61878453038674" y1="54" x2="48.61878453038674" y2="70" stroke="#FFC63F"></line><line x1="49.50276243093923" y1="62" x2="49.50276243093923" y2="70" stroke="#FFC63F"></line><line x1="51.270718232044196" y1="62" x2="51.270718232044196" y2="70" stroke="#FFC63F"></line><line x1="53.03867403314917" y1="62" x2="53.03867403314917" y2="70" stroke="#FFC63F"></line><line x1="54.80662983425414" y1="62" x2="54.80662983425414" y2="70" stroke="#FFC63F"></line><line x1="57.4585635359116" y1="62" x2="57.4585635359116" y2="70" stroke="#FFC63F"></line><line x1="59.22651933701657" y1="62" x2="59.22651933701657" y2="70" stroke="#FFC63F"></line><line x1="60.99447513812155" y1="62" x2="60.99447513812155" y2="70" stroke="#FFC63F"></line><line x1="62.76243093922652" y1="62" x2="62.76243093922652" y2="70" stroke="#FFC63F"></line><line x1="65.41436464088399" y1="62" x2="65.41436464088399" y2="70" stroke="#FFC63F"></line><line x1="66.29834254143645" y1="62" x2="66.29834254143645" y2="70" stroke="#FFC63F"></line><line x1="68.06629834254143" y1="62" x2="68.06629834254143" y2="70" stroke="#FFC63F"></line><line x1="69.83425414364642" y1="62" x2="69.83425414364642" y2="70" stroke="#FFC63F"></line><line x1="74.25414364640885" y1="62" x2="74.25414364640885" y2="70" stroke="#FFC63F"></line><line x1="76.02209944751381" y1="62" x2="76.02209944751381" y2="70" stroke="#FFC63F"></line><line x1="77.79005524861878" y1="62" x2="77.79005524861878" y2="70" stroke="#FFC63F"></line><line x1="80.44198895027624" y1="62" x2="80.44198895027624" y2="70" stroke="#FFC63F"></line><line x1="81.32596685082873" y1="62" x2="81.32596685082873" y2="70" stroke="#FFC63F"></line><line x1="82.20994475138122" y1="62" x2="82.20994475138122" y2="70" stroke="#FFC63F"></line><line x1="86.62983425414365" y1="62" x2="86.62983425414365" y2="70" stroke="#FFC63F"></line><line x1="90.1657458563536" y1="62" x2="90.1657458563536" y2="70" stroke="#FFC63F"></line><line x1="95.4696132596685" y1="62" x2="95.4696132596685" y2="70" stroke="#FFC63F"></line><line x1="99.00552486187846" y1="62" x2="99.00552486187846" y2="70" stroke="#FFC63F"></line><line x1="100.77348066298342" y1="62" x2="100.77348066298342" y2="70" stroke="#FFC63F"></line><line x1="103.42541436464087" y1="62" x2="103.42541436464087" y2="70" stroke="#FFC63F"></line><line x1="106.96132596685084" y1="62" x2="106.96132596685084" y2="70" stroke="#FFC63F"></line><line x1="111.38121546961327" y1="62" x2="111.38121546961327" y2="70" stroke="#FFC63F"></line><line x1="112.26519337016573" y1="62" x2="112.26519337016573" y2="70" stroke="#FFC63F"></line><line x1="118.45303867403314" y1="54" x2="118.45303867403314" y2="70" stroke="#FFC63F"></line><line x1="120.22099447513813" y1="62" x2="120.22099447513813" y2="70" stroke="#FFC63F"></line><line x1="121.9889502762431" y1="62" x2="121.9889502762431" y2="70" stroke="#FFC63F"></line><line x1="139.66850828729284" y1="62" x2="139.66850828729284" y2="70" stroke="#FFC63F"></line><line x1="141.43646408839777" y1="62" x2="141.43646408839777" y2="70" stroke="#FFC63F"></line><line x1="159.11602209944752" y1="54" x2="159.11602209944752" y2="70" stroke="#FFC63F"></line><line x1="173.2596685082873" y1="62" x2="173.2596685082873" y2="70" stroke="#FFC63F"></line><line x1="179.44751381215468" y1="62" x2="179.44751381215468" y2="70" stroke="#FFC63F"></line><line x1="181.21546961325967" y1="62" x2="181.21546961325967" y2="70" stroke="#FFC63F"></line><line x1="183.86740331491714" y1="62" x2="183.86740331491714" y2="70" stroke="#FFC63F"></line><line x1="185.6353591160221" y1="62" x2="185.6353591160221" y2="70" stroke="#FFC63F"></line><line x1="187.40331491712706" y1="62" x2="187.40331491712706" y2="70" stroke="#FFC63F"></line><line x1="191.8232044198895" y1="62" x2="191.8232044198895" y2="70" stroke="#FFC63F"></line><line x1="194.47513812154696" y1="62" x2="194.47513812154696" y2="70" stroke="#FFC63F"></line><line x1="197.1270718232044" y1="62" x2="197.1270718232044" y2="70" stroke="#FFC63F"></line><line x1="201.54696132596683" y1="38" x2="201.54696132596683" y2="70" stroke="#FFC63F"></line><line x1="205.08287292817678" y1="62" x2="205.08287292817678" y2="70" stroke="#FFC63F"></line><line x1="206.85082872928174" y1="62" x2="206.85082872928174" y2="70" stroke="#FFC63F"></line><line x1="220.99447513812157" y1="46" x2="220.99447513812157" y2="70" stroke="#FFC63F"></line><line x1="223.646408839779" y1="62" x2="223.646408839779" y2="70" stroke="#FFC63F"></line><line x1="224.53038674033147" y1="54" x2="224.53038674033147" y2="70" stroke="#FFC63F"></line><line x1="226.29834254143648" y1="54" x2="226.29834254143648" y2="70" stroke="#FFC63F"></line><line x1="227.18232044198894" y1="62" x2="227.18232044198894" y2="70" stroke="#FFC63F"></line><line x1="235.13812154696132" y1="62" x2="235.13812154696132" y2="70" stroke="#FFC63F"></line><line x1="236.02209944751382" y1="62" x2="236.02209944751382" y2="70" stroke="#FFC63F"></line><line x1="236.90607734806628" y1="62" x2="236.90607734806628" y2="70" stroke="#FFC63F"></line><line x1="243.0939226519337" y1="62" x2="243.0939226519337" y2="70" stroke="#FFC63F"></line><line x1="243.9779005524862" y1="62" x2="243.9779005524862" y2="70" stroke="#FFC63F"></line><line x1="245.74585635359117" y1="62" x2="245.74585635359117" y2="70" stroke="#FFC63F"></line><line x1="251.04972375690608" y1="62" x2="251.04972375690608" y2="70" stroke="#FFC63F"></line><line x1="253.70165745856355" y1="62" x2="253.70165745856355" y2="70" stroke="#FFC63F"></line><line x1="255.4696132596685" y1="62" x2="255.4696132596685" y2="70" stroke="#FFC63F"></line><line x1="257.23756906077347" y1="62" x2="257.23756906077347" y2="70" stroke="#FFC63F"></line><line x1="13.259668508287293" y1="30" x2="13.259668508287293" y2="70" stroke="#7BDC90"></line><line x1="154.6961325966851" y1="30" x2="154.6961325966851" y2="70" stroke="#7BDC90"></line><line x1="170.60773480662982" y1="30" x2="170.60773480662982" y2="70" stroke="#7BDC90"></line><line x1="215.69060773480663" y1="30" x2="215.69060773480663" y2="70" stroke="#7BDC90"></line><line x1="266.96132596685084" y1="30" x2="266.96132596685084" y2="70" stroke="#7BDC90"></line><line x1="17.67955801104972" y1="30" x2="17.67955801104972" y2="70" stroke="#FF868F"></line><line x1="160.88397790055248" y1="30" x2="160.88397790055248" y2="70" stroke="#FF868F"></line><line x1="166.18784530386742" y1="30" x2="166.18784530386742" y2="70" stroke="#FF868F"></line><line x1="175.91160220994476" y1="30" x2="175.91160220994476" y2="70" stroke="#FF868F"></line><line x1="240.44198895027625" y1="30" x2="240.44198895027625" y2="70" stroke="#FF868F"></line><line x1="272.2651933701657" y1="30" x2="272.2651933701657" y2="70" stroke="#FF868F"></line></g><g transform="translate(0 450)"><rect y="30" height="40" width="424.30939226519337" fill-opacity="0" stroke="#C0C0C0"></rect><line x1="25.635359116022098" y1="62" x2="25.635359116022098" y2="70" stroke="#FFC63F"></line><line x1="26.519337016574585" y1="62" x2="26.519337016574585" y2="70" stroke="#FFC63F"></line><line x1="41.546961325966855" y1="62" x2="41.546961325966855" y2="70" stroke="#FFC63F"></line><line x1="44.19889502762431" y1="62" x2="44.19889502762431" y2="70" stroke="#FFC63F"></line><line x1="50.38674033149171" y1="62" x2="50.38674033149171" y2="70" stroke="#FFC63F"></line><line x1="52.15469613259669" y1="62" x2="52.15469613259669" y2="70" stroke="#FFC63F"></line><line x1="53.92265193370166" y1="62" x2="53.92265193370166" y2="70" stroke="#FFC63F"></line><line x1="65.41436464088399" y1="62" x2="65.41436464088399" y2="70" stroke="#FFC63F"></line><line x1="91.93370165745857" y1="62" x2="91.93370165745857" y2="70" stroke="#FFC63F"></line><line x1="94.58563535911603" y1="62" x2="94.58563535911603" y2="70" stroke="#FFC63F"></line><line x1="99.00552486187846" y1="62" x2="99.00552486187846" y2="70" stroke="#FFC63F"></line><line x1="100.77348066298342" y1="62" x2="100.77348066298342" y2="70" stroke="#FFC63F"></line><line x1="108.7292817679558" y1="62" x2="108.7292817679558" y2="70" stroke="#FFC63F"></line><line x1="112.26519337016573" y1="62" x2="112.26519337016573" y2="70" stroke="#FFC63F"></line><line x1="115.8011049723757" y1="62" x2="115.8011049723757" y2="70" stroke="#FFC63F"></line><line x1="118.45303867403314" y1="62" x2="118.45303867403314" y2="70" stroke="#FFC63F"></line><line x1="123.75690607734806" y1="62" x2="123.75690607734806" y2="70" stroke="#FFC63F"></line><line x1="127.292817679558" y1="62" x2="127.292817679558" y2="70" stroke="#FFC63F"></line><line x1="130.82872928176798" y1="62" x2="130.82872928176798" y2="70" stroke="#FFC63F"></line><line x1="133.48066298342542" y1="62" x2="133.48066298342542" y2="70" stroke="#FFC63F"></line><line x1="134.3646408839779" y1="62" x2="134.3646408839779" y2="70" stroke="#FFC63F"></line><line x1="136.13259668508286" y1="62" x2="136.13259668508286" y2="70" stroke="#FFC63F"></line><line x1="137.01657458563537" y1="62" x2="137.01657458563537" y2="70" stroke="#FFC63F"></line><line x1="148.5082872928177" y1="62" x2="148.5082872928177" y2="70" stroke="#FFC63F"></line><line x1="149.39226519337018" y1="62" x2="149.39226519337018" y2="70" stroke="#FFC63F"></line><line x1="150.27624309392266" y1="62" x2="150.27624309392266" y2="70" stroke="#FFC63F"></line><line x1="161.76795580110496" y1="62" x2="161.76795580110496" y2="70" stroke="#FFC63F"></line><line x1="164.41988950276243" y1="62" x2="164.41988950276243" y2="70" stroke="#FFC63F"></line><line x1="166.18784530386742" y1="62" x2="166.18784530386742" y2="70" stroke="#FFC63F"></line><line x1="168.83977900552486" y1="62" x2="168.83977900552486" y2="70" stroke="#FFC63F"></line><line x1="175.91160220994476" y1="62" x2="175.91160220994476" y2="70" stroke="#FFC63F"></line><line x1="190.939226519337" y1="62" x2="190.939226519337" y2="70" stroke="#FFC63F"></line><line x1="191.8232044198895" y1="62" x2="191.8232044198895" y2="70" stroke="#FFC63F"></line><line x1="194.47513812154696" y1="62" x2="194.47513812154696" y2="70" stroke="#FFC63F"></line><line x1="196.24309392265192" y1="62" x2="196.24309392265192" y2="70" stroke="#FFC63F"></line><line x1="198.0110497237569" y1="62" x2="198.0110497237569" y2="70" stroke="#FFC63F"></line><line x1="244.86187845303866" y1="62" x2="244.86187845303866" y2="70" stroke="#FFC63F"></line><line x1="254.585635359116" y1="54" x2="254.585635359116" y2="70" stroke="#FFC63F"></line><line x1="259.88950276243094" y1="62" x2="259.88950276243094" y2="70" stroke="#FFC63F"></line><line x1="263.4254143646409" y1="62" x2="263.4254143646409" y2="70" stroke="#FFC63F"></line><line x1="266.96132596685084" y1="62" x2="266.96132596685084" y2="70" stroke="#FFC63F"></line><line x1="269.6132596685083" y1="62" x2="269.6132596685083" y2="70" stroke="#FFC63F"></line><line x1="271.38121546961327" y1="62" x2="271.38121546961327" y2="70" stroke="#FFC63F"></line><line x1="287.292817679558" y1="62" x2="287.292817679558" y2="70" stroke="#FFC63F"></line><line x1="292.5966850828729" y1="62" x2="292.5966850828729" y2="70" stroke="#FFC63F"></line><line x1="293.4806629834254" y1="62" x2="293.4806629834254" y2="70" stroke="#FFC63F"></line><line x1="296.1325966850829" y1="62" x2="296.1325966850829" y2="70" stroke="#FFC63F"></line><line x1="298.78453038674036" y1="62" x2="298.78453038674036" y2="70" stroke="#FFC63F"></line><line x1="302.3204419889503" y1="62" x2="302.3204419889503" y2="70" stroke="#FFC63F"></line><line x1="311.16022099447514" y1="62" x2="311.16022099447514" y2="70" stroke="#FFC63F"></line><line x1="312.9281767955801" y1="62" x2="312.9281767955801" y2="70" stroke="#FFC63F"></line><line x1="367.7348066298343" y1="62" x2="367.7348066298343" y2="70" stroke="#FFC63F"></line><line x1="369.50276243093924" y1="62" x2="369.50276243093924" y2="70" stroke="#FFC63F"></line><line x1="370.38674033149175" y1="62" x2="370.38674033149175" y2="70" stroke="#FFC63F"></line><line x1="408.3977900552486" y1="62" x2="408.3977900552486" y2="70" stroke="#FFC63F"></line><line x1="411.0497237569061" y1="62" x2="411.0497237569061" y2="70" stroke="#FFC63F"></line><line x1="411.9337016574586" y1="62" x2="411.9337016574586" y2="70" stroke="#FFC63F"></line><line x1="414.585635359116" y1="62" x2="414.585635359116" y2="70" stroke="#FFC63F"></line><line x1="416.353591160221" y1="62" x2="416.353591160221" y2="70" stroke="#FFC63F"></line><line x1="418.1215469613259" y1="62" x2="418.1215469613259" y2="70" stroke="#FFC63F"></line><line x1="419.88950276243094" y1="62" x2="419.88950276243094" y2="70" stroke="#FFC63F"></line><line x1="21.215469613259668" y1="30" x2="21.215469613259668" y2="70" stroke="#7BDC90"></line><line x1="215.69060773480663" y1="30" x2="215.69060773480663" y2="70" stroke="#7BDC90"></line><line x1="341.21546961325964" y1="30" x2="341.21546961325964" y2="70" stroke="#7BDC90"></line><line x1="381.878453038674" y1="30" x2="381.878453038674" y2="70" stroke="#7BDC90"></line><line x1="71.60220994475138" y1="30" x2="71.60220994475138" y2="70" stroke="#FF868F"></line><line x1="274.9171270718232" y1="30" x2="274.9171270718232" y2="70" stroke="#FF868F"></line><line x1="355.35911602209944" y1="30" x2="355.35911602209944" y2="70" stroke="#FF868F"></line><line x1="391.6022099447514" y1="30" x2="391.6022099447514" y2="70" stroke="#FF868F"></line></g></svg>