<svg height="548" width="800"><line x1="0" y1="0" x2="0" y2="5" stroke="#ACACAC"></line><line x1="53.03867403314917" y1="0" x2="53.03867403314917" y2="5" stroke="#ACACAC"></line><line x1="106.07734806629834" y1="0" x2="106.07734806629834" y2="5" stroke="#ACACAC"></line><line x1="159.11602209944752" y1="0" x2="159.11602209944752" y2="5" stroke="#ACACAC"></line><line x1="212.15469613259668" y1="0" x2="212.15469613259668" y2="5" stroke="#ACACAC"></line><line x1="265.1933701657458" y1="0" x2="265.1933701657458" y2="5" stroke="#ACACAC"></line><line x1="318.23204419889504" y1="0" x2="318.23204419889504" y2="5" stroke="#ACACAC"></line><line x1="371.2707182320442" y1="0" x2="371.2707182320442" y2="5" stroke="#ACACAC"></line><line x1="424.30939226519337" y1="0" x2="424.30939226519337" y2="5" stroke="#ACACAC"></line><line x1="477.3480662983426" y1="0" x2="477.3480662983426" y2="5" stroke="#ACACAC"></line><line x1="530.3867403314916" y1="0" x2="530.3867403314916" y2="5" stroke="#ACACAC"></line><line x1="583.4254143646409" y1="0" x2="583.4254143646409" y2="5" stroke="#ACACAC"></line><line x1="636.4640883977901" y1="0" x2="636.4640883977901" y2="5" stroke="#ACACAC"></line><line x1="689.5027624309392" y1="0" x2="689.5027624309392" y2="5" stroke="#ACACAC"></line><line x1="742.5414364640884" y1="0" x2="742.5414364640884" y2="5" stroke="#ACACAC"></line><line x1="795.5801104972376" y1="0" x2="795.5801104972376" y2="5" stroke="#ACACAC"></line><g transform="translate(0 0)"><rect x="0" y="30" height="40" width="33.59" fill="#7BDC90"></rect><rect x="88.4" y="30" height="40" width="34.48" fill="#7BDC90"></rect><rect x="170.61" y="30" height="40" width="7.07" fill="#7BDC90"></rect><rect x="199.78" y="30" height="40" width="26.52" fill="#7BDC90"></rect><rect x="249.28" y="30" height="40" width="12.38" fill="#7BDC90"></rect><rect x="297.02" y="30" height="40" width="13.26" fill="#7BDC90"></rect><rect x="316.46" y="30" height="40" width="45.97" fill="#7BDC90"></rect><rect x="380.99" y="30" height="40" width="2.65" fill="#7BDC90"></rect><rect x="394.25" y="30" height="40" width="44.2" fill="#7BDC90"></rect><rect x="448.18" y="30" height="40" width="15.91" fill="#7BDC90"></rect><rect x="474.7" y="30" height="40" width="10.61" fill="#7BDC90"></rect><rect x="597.57" y="30" height="40" width="19.45" fill="#7BDC90"></rect><rect x="626.74" y="30" height="40" width="7.07" fill="#7BDC90"></rect><rect x="655.91" y="30" height="40" width="10.61" fill="#7BDC90"></rect><rect x="680.66" y="30" height="40" width="13.26" fill="#7BDC90"></rect><rect x="33.59" y="30" height="40" width="54.81" fill="#5E7EFC"></rect><rect x="226.3" y="30" height="40" width="22.98" fill="#5E7EFC"></rect><rect x="362.43" y="30" height="40" width="18.56" fill="#5E7EFC"></rect><rect x="633.81" y="30" height="40" width="22.1" fill="#5E7EFC"></rect><rect x="122.87" y="30" height="40" width="47.73" fill="#FF525F"></rect><rect x="261.66" y="30" height="40" width="35.36" fill="#FF525F"></rect><rect x="383.65" y="30" height="40" width="10.61" fill="#FF525F"></rect><rect x="438.45" y="30" height="40" width="9.72" fill="#FF525F"></rect><rect x="577.24" y="30" height="40" width="20.33" fill="#FF525F"></rect><rect x="666.52" y="30" height="40" width="14.14" fill="#FF525F"></rect><rect x="177.68" y="30" height="40" width="9.72" fill="#FFC63F"></rect><rect x="485.3" y="30" height="40" width="91.93" fill="#FFC63F"></rect><rect x="624.09" y="30" height="40" width="2.65" fill="#FFC63F"></rect><rect x="187.4" y="30" height="40" width="12.38" fill="#E7E7E7"></rect><rect x="310.28" y="30" height="40" width="6.19" fill="#E7E7E7"></rect><rect x="464.09" y="30" height="40" width="10.61" fill="#E7E7E7"></rect><rect x="617.02" y="30" height="40" width="7.07" fill="#E7E7E7"></rect><rect x="693.92" y="30" height="40" width="11.49" fill="#E7E7E7"></rect><rect y="30" height="40" fill-opacity="0" stroke="#C0C0C0" width="705.4143646408841"></rect></g><g transform="translate(0 50)"><rect x="0" y="30" height="40" width="18.56" fill="#9A5CFF"></rect><rect x="32.71" y="30" height="40" width="7.07" fill="#9A5CFF"></rect><rect x="83.98" y="30" height="40" width="60.11" fill="#9A5CFF"></rect><rect x="18.56" y="30" height="40" width="14.14" fill="#7BDC90"></rect><rect x="39.78" y="30" height="40" width="9.72" fill="#7BDC90"></rect><rect x="63.65" y="30" height="40" width="6.19" fill="#7BDC90"></rect><rect x="152.93" y="30" height="40" width="5.3" fill="#7BDC90"></rect><rect x="174.14" y="30" height="40" width="5.3" fill="#7BDC90"></rect><rect x="205.97" y="30" height="40" width="23.87" fill="#7BDC90"></rect><rect x="241.33" y="30" height="40" width="4.42" fill="#7BDC90"></rect><rect x="261.66" y="30" height="40" width="25.64" fill="#7BDC90"></rect><rect x="296.13" y="30" height="40" width="4.42" fill="#7BDC90"></rect><rect x="320" y="30" height="40" width="4.42" fill="#7BDC90"></rect><rect x="49.5" y="30" height="40" width="14.14" fill="#5E7EFC"></rect><rect x="158.23" y="30" height="40" width="15.91" fill="#5E7EFC"></rect><rect x="229.83" y="30" height="40" width="11.49" fill="#5E7EFC"></rect><rect x="287.29" y="30" height="40" width="8.84" fill="#5E7EFC"></rect><rect x="69.83" y="30" height="40" width="14.14" fill="#FF525F"></rect><rect x="179.45" y="30" height="40" width="26.52" fill="#FF525F"></rect><rect x="245.75" y="30" height="40" width="15.91" fill="#FF525F"></rect><rect x="300.55" y="30" height="40" width="19.45" fill="#FF525F"></rect><rect x="332.38" y="30" height="40" width="28.29" fill="#FFC63F"></rect><rect x="144.09" y="30" height="40" width="8.84" fill="#E7E7E7"></rect><rect x="324.42" y="30" height="40" width="7.96" fill="#E7E7E7"></rect><rect y="30" height="40" width="360.6629834254144" fill-opacity="0" stroke="#C0C0C0"></rect></g><g transform="translate(0 100)"><rect x="0.88" y="30" height="40" width="3.54" fill="#9A5CFF"></rect><rect x="7.07" y="30" height="40" width="4.42" fill="#9A5CFF"></rect><rect x="4.42" y="30" height="40" width="2.65" fill="#7BDC90"></rect><rect x="11.49" y="30" height="40" width="33.59" fill="#7BDC90"></rect><rect x="59.23" y="30" height="40" width="16.8" fill="#7BDC90"></rect><rect x="105.19" y="30" height="40" width="6.19" fill="#7BDC90"></rect><rect x="118.45" y="30" height="40" width="19.45" fill="#7BDC90"></rect><rect x="149.39" y="30" height="40" width="3.54" fill="#7BDC90"></rect><rect x="184.75" y="30" height="40" width="9.72" fill="#7BDC90"></rect><rect x="198.01" y="30" height="40" width="6.19" fill="#7BDC90"></rect><rect x="45.08" y="30" height="40" width="14.14" fill="#5E7EFC"></rect><rect x="137.9" y="30" height="40" width="11.49" fill="#5E7EFC"></rect><rect x="194.48" y="30" height="40" width="3.54" fill="#5E7EFC"></rect><rect x="76.02" y="30" height="40" width="29.17" fill="#FF525F"></rect><rect x="152.93" y="30" height="40" width="21.22" fill="#FF525F"></rect><rect x="204.2" y="30" height="40" width="9.72" fill="#FFC63F"></rect><rect x="111.38" y="30" height="40" width="7.07" fill="#E7E7E7"></rect><rect x="174.14" y="30" height="40" width="10.61" fill="#E7E7E7"></rect><rect y="30" height="40" width="213.92265193370167" fill-opacity="0" stroke="#C0C0C0"></rect></g><g transform="translate(0 150)"><rect x="98.12" y="30" height="40" width="114.03" fill="#9A5CFF"></rect><rect x="0.88" y="30" height="40" width="27.4" fill="#7BDC90"></rect><rect x="77.79" y="30" height="40" width="20.33" fill="#7BDC90"></rect><rect x="251.93" y="30" height="40" width="10.61" fill="#7BDC90"></rect><rect x="275.8" y="30" height="40" width="15.03" fill="#7BDC90"></rect><rect x="335.91" y="30" height="40" width="6.19" fill="#7BDC90"></rect><rect x="432.27" y="30" height="40" width="16.8" fill="#7BDC90"></rect><rect x="466.74" y="30" height="40" width="5.3" fill="#7BDC90"></rect><rect x="516.24" y="30" height="40" width="11.49" fill="#7BDC90"></rect><rect x="28.29" y="30" height="40" width="49.5" fill="#5E7EFC"></rect><rect x="290.83" y="30" height="40" width="45.08" fill="#5E7EFC"></rect><rect x="449.06" y="30" height="40" width="17.68" fill="#5E7EFC"></rect><rect x="212.15" y="30" height="40" width="39.78" fill="#FF525F"></rect><rect x="342.1" y="30" height="40" width="75.14" fill="#FF525F"></rect><rect x="472.04" y="30" height="40" width="44.2" fill="#FF525F"></rect><rect x="262.54" y="30" height="40" width="13.26" fill="#E7E7E7"></rect><rect x="417.24" y="30" height="40" width="15.03" fill="#E7E7E7"></rect><rect x="527.73" y="30" height="40" width="10.61" fill="#E7E7E7"></rect><rect y="30" height="40" width="538.3425414364641" fill-opacity="0" stroke="#C0C0C0"></rect></g><g transform="translate(0 200)"><rect x="0" y="30" height="40" width="30.94" fill="#7BDC90"></rect><rect x="45.08" y="30" height="40" width="16.8" fill="#7BDC90"></rect><rect x="85.75" y="30" height="40" width="20.33" fill="#7BDC90"></rect><rect x="119.34" y="30" height="40" width="2.65" fill="#7BDC90"></rect><rect x="152.04" y="30" height="40" width="11.49" fill="#7BDC90"></rect><rect x="169.72" y="30" height="40" width="10.61" fill="#7BDC90"></rect><rect x="182.1" y="30" height="40" width="5.3" fill="#7BDC90"></rect><rect x="211.27" y="30" height="40" width="6.19" fill="#7BDC90"></rect><rect x="257.24" y="30" height="40" width="18.56" fill="#7BDC90"></rect><rect x="282.87" y="30" height="40" width="5.3" fill="#7BDC90"></rect><rect x="302.32" y="30" height="40" width="5.3" fill="#7BDC90"></rect><rect x="331.49" y="30" height="40" width="8.84" fill="#7BDC90"></rect><rect x="370.39" y="30" height="40" width="2.65" fill="#7BDC90"></rect><rect x="382.76" y="30" height="40" width="22.98" fill="#7BDC90"></rect><rect x="30.94" y="30" height="40" width="14.14" fill="#5E7EFC"></rect><rect x="106.08" y="30" height="40" width="13.26" fill="#5E7EFC"></rect><rect x="187.4" y="30" height="40" width="23.87" fill="#5E7EFC"></rect><rect x="288.18" y="30" height="40" width="14.14" fill="#5E7EFC"></rect><rect x="340.33" y="30" height="40" width="30.06" fill="#5E7EFC"></rect><rect x="61.88" y="30" height="40" width="23.87" fill="#FF525F"></rect><rect x="121.99" y="30" height="40" width="30.06" fill="#FF525F"></rect><rect x="217.46" y="30" height="40" width="39.78" fill="#FF525F"></rect><rect x="307.62" y="30" height="40" width="23.87" fill="#FF525F"></rect><rect x="373.04" y="30" height="40" width="9.72" fill="#FF525F"></rect><rect x="163.54" y="30" height="40" width="6.19" fill="#FFC63F"></rect><rect x="180.33" y="30" height="40" width="1.77" fill="#FFC63F"></rect><rect x="275.8" y="30" height="40" width="7.07" fill="#E7E7E7"></rect><rect y="30" height="40" width="405.7458563535912" fill-opacity="0" stroke="#C0C0C0"></rect></g><g transform="translate(0 250)"><rect x="25.64" y="30" height="40" width="14.14" fill="#9A5CFF"></rect><rect x="6.19" y="30" height="40" width="19.45" fill="#7BDC90"></rect><rect x="81.33" y="30" height="40" width="19.45" fill="#7BDC90"></rect><rect x="161.77" y="30" height="40" width="21.22" fill="#7BDC90"></rect><rect x="189.17" y="30" height="40" width="7.96" fill="#7BDC90"></rect><rect x="226.3" y="30" height="40" width="4.42" fill="#7BDC90"></rect><rect x="245.75" y="30" height="40" width="23.87" fill="#7BDC90"></rect><rect x="314.7" y="30" height="40" width="0.88" fill="#7BDC90"></rect><rect x="328.84" y="30" height="40" width="8.84" fill="#7BDC90"></rect><rect x="39.78" y="30" height="40" width="41.55" fill="#5E7EFC"></rect><rect x="182.98" y="30" height="40" width="6.19" fill="#5E7EFC"></rect><rect x="210.39" y="30" height="40" width="15.91" fill="#5E7EFC"></rect><rect x="288.18" y="30" height="40" width="26.52" fill="#5E7EFC"></rect><rect x="100.77" y="30" height="40" width="60.99" fill="#FF525F"></rect><rect x="230.72" y="30" height="40" width="15.03" fill="#FF525F"></rect><rect x="315.58" y="30" height="40" width="13.26" fill="#FF525F"></rect><rect x="197.13" y="30" height="40" width="13.26" fill="#E7E7E7"></rect><rect x="269.61" y="30" height="40" width="18.56" fill="#E7E7E7"></rect><rect x="337.68" y="30" height="40" width="8.84" fill="#E7E7E7"></rect><rect y="30" height="40" width="346.5193370165746" fill-opacity="0" stroke="#C0C0C0"></rect></g><g transform="translate(0 300)"><rect x="8.84" y="30" height="40" width="18.56" fill="#9A5CFF"></rect><rect x="0" y="30" height="40" width="8.84" fill="#7BDC90"></rect><rect x="27.4" y="30" height="40" width="15.91" fill="#7BDC90"></rect><rect x="65.41" y="30" height="40" width="14.14" fill="#7BDC90"></rect><rect x="120.22" y="30" height="40" width="11.49" fill="#7BDC90"></rect><rect x="137.02" y="30" height="40" width="26.52" fill="#7BDC90"></rect><rect x="189.17" y="30" height="40" width="4.42" fill="#7BDC90"></rect><rect x="224.53" y="30" height="40" width="9.72" fill="#7BDC90"></rect><rect x="243.98" y="30" height="40" width="7.96" fill="#7BDC90"></rect><rect x="281.99" y="30" height="40" width="9.72" fill="#7BDC90"></rect><rect x="295.25" y="30" height="40" width="4.42" fill="#7BDC90"></rect><rect x="319.12" y="30" height="40" width="1.77" fill="#7BDC90"></rect><rect x="326.19" y="30" height="40" width="2.65" fill="#7BDC90"></rect><rect x="43.31" y="30" height="40" width="22.1" fill="#5E7EFC"></rect><rect x="163.54" y="30" height="40" width="25.64" fill="#5E7EFC"></rect><rect x="251.93" y="30" height="40" width="15.03" fill="#5E7EFC"></rect><rect x="299.67" y="30" height="40" width="19.45" fill="#5E7EFC"></rect><rect x="79.56" y="30" height="40" width="40.66" fill="#FF525F"></rect><rect x="193.59" y="30" height="40" width="30.94" fill="#FF525F"></rect><rect x="266.96" y="30" height="40" width="15.03" fill="#FF525F"></rect><rect x="320.88" y="30" height="40" width="5.3" fill="#FF525F"></rect><rect x="131.71" y="30" height="40" width="5.3" fill="#E7E7E7"></rect><rect x="234.25" y="30" height="40" width="9.72" fill="#E7E7E7"></rect><rect x="291.71" y="30" height="40" width="3.54" fill="#E7E7E7"></rect><rect y="30" height="40" width="328.83977900552486" fill-opacity="0" stroke="#C0C0C0"></rect></g><g transform="translate(0 350)"><rect x="20.33" y="30" height="40" width="5.3" fill="#9A5CFF"></rect><rect x="111.38" y="30" height="40" width="31.82" fill="#9A5CFF"></rect><rect x="0" y="30" height="40" width="20.33" fill="#7BDC90"></rect><rect x="25.64" y="30" height="40" width="3.54" fill="#7BDC90"></rect><rect x="73.37" y="30" height="40" width="25.64" fill="#7BDC90"></rect><rect x="104.31" y="30" height="40" width="7.07" fill="#7BDC90"></rect><rect x="38.01" y="30" height="40" width="35.36" fill="#5E7EFC"></rect><rect x="29.17" y="30" height="40" width="8.84" fill="#E7E7E7"></rect><rect x="99.01" y="30" height="40" width="5.3" fill="#E7E7E7"></rect><rect y="30" height="40" width="143.20441988950276" fill-opacity="0" stroke="#C0C0C0"></rect></g><g transform="translate(0 400)"><rect x="22.1" y="30" height="40" width="10.61" fill="#9A5CFF"></rect><rect x="75.14" y="30" height="40" width="25.64" fill="#9A5CFF"></rect><rect x="121.1" y="30" height="40" width="17.68" fill="#9A5CFF"></rect><rect x="4.42" y="30" height="40" width="17.68" fill="#7BDC90"></rect><rect x="142.32" y="30" height="40" width="19.45" fill="#7BDC90"></rect><rect x="168.84" y="30" height="40" width="3.54" fill="#7BDC90"></rect><rect x="175.91" y="30" height="40" width="4.42" fill="#7BDC90"></rect><rect x="205.97" y="30" height="40" width="15.91" fill="#7BDC90"></rect><rect x="237.79" y="30" height="40" width="2.65" fill="#7BDC90"></rect><rect x="261.66" y="30" height="40" width="14.14" fill="#7BDC90"></rect><rect x="161.77" y="30" height="40" width="7.07" fill="#5E7EFC"></rect><rect x="172.38" y="30" height="40" width="3.54" fill="#5E7EFC"></rect><rect x="232.49" y="30" height="40" width="5.3" fill="#5E7EFC"></rect><rect x="32.71" y="30" height="40" width="42.43" fill="#FF525F"></rect><rect x="100.77" y="30" height="40" width="20.33" fill="#FF525F"></rect><rect x="138.78" y="30" height="40" width="3.54" fill="#FF525F"></rect><rect x="180.33" y="30" height="40" width="25.64" fill="#FF525F"></rect><rect x="240.44" y="30" height="40" width="21.22" fill="#FF525F"></rect><rect x="221.88" y="30" height="40" width="10.61" fill="#E7E7E7"></rect><rect y="30" height="40" width="275.8011049723757" fill-opacity="0" stroke="#C0C0C0"></rect></g><g transform="translate(0 450)"><rect x="16.8" y="30" height="40" width="2.65" fill="#9A5CFF"></rect><rect x="125.52" y="30" height="40" width="42.43" fill="#9A5CFF"></rect><rect x="0" y="30" height="40" width="16.8" fill="#7BDC90"></rect><rect x="19.45" y="30" height="40" width="19.45" fill="#7BDC90"></rect><rect x="71.6" y="30" height="40" width="16.8" fill="#7BDC90"></rect><rect x="200.66" y="30" height="40" width="45.97" fill="#7BDC90"></rect><rect x="273.15" y="30" height="40" width="15.91" fill="#7BDC90"></rect><rect x="314.7" y="30" height="40" width="29.17" fill="#7BDC90"></rect><rect x="38.9" y="30" height="40" width="32.71" fill="#5E7EFC"></rect><rect x="246.63" y="30" height="40" width="26.52" fill="#5E7EFC"></rect><rect x="343.87" y="30" height="40" width="19.45" fill="#5E7EFC"></rect><rect x="88.4" y="30" height="40" width="37.13" fill="#FF525F"></rect><rect x="167.96" y="30" height="40" width="32.71" fill="#FF525F"></rect><rect x="289.06" y="30" height="40" width="25.64" fill="#FF525F"></rect><rect x="367.73" y="30" height="40" width="7.07" fill="#FF525F"></rect><rect x="409.28" y="30" height="40" width="19.45" fill="#FF525F"></rect><rect x="363.31" y="30" height="40" width="4.42" fill="#E7E7E7"></rect><rect x="374.81" y="30" height="40" width="34.48" fill="#E7E7E7"></rect><rect y="30" height="40" width="428.7292817679558" fill-opacity="0" stroke="#C0C0C0"></rect></g></svg>